<?xml version="1.0" encoding="utf-8"?>
<!-- Generator: Adobe Illustrator 16.0.0, SVG Export Plug-In . SVG Version: 6.00 Build 0)  -->
<!DOCTYPE svg PUBLIC "-//W3C//DTD SVG 1.1//EN" "http://www.w3.org/Graphics/SVG/1.1/DTD/svg11.dtd">
<svg version="1.1" id="cardthumbnail_xA0_Image_1_" xmlns="http://www.w3.org/2000/svg" xmlns:xlink="http://www.w3.org/1999/xlink"
	 x="0px" y="0px" width="212px" height="642px" viewBox="0 0 212 642" enable-background="new 0 0 212 642" xml:space="preserve">
<g>
	<path fill="#FFFFFF" d="M213,43c-47.143,0-94.283,0.03-141.424-0.042c-5.4-0.009-10.632,1.555-16.087,1.189
		c-1.761-0.117-3.836,1.23-5.417,2.387c-2.612,1.91-4.286,4.736-5.623,7.627c-0.574,1.24-0.432,2.86-0.433,4.309
		C43.995,91.785,44,125.101,44,158.416c0,18.823-0.131,37.648,0.1,56.469c0.053,4.286-1.576,8.329-1.083,12.578
		c0.198,1.713-0.766,3.618,0.936,5.138c0.331,0.296,0.048,1.279,0.048,1.946c0,0.166,0,0.333,0,0.499c0,0.167,0,0.334,0,0.5
		c0,0.167,0.004,0.333-0.001,0.5c-0.005,0.162,0.021,0.344-0.042,0.48c-0.066,0.143-0.224,0.241-0.342,0.359
		c-0.118,0.117-0.245,0.228-0.351,0.355c-0.1,0.12-0.213,0.248-0.254,0.392c-0.043,0.154-0.021,0.332-0.006,0.497
		c0.015,0.155,0.025,0.326,0.098,0.457c0.078,0.14,0.227,0.24,0.344,0.358c0.117,0.118,0.251,0.224,0.349,0.356
		c0.089,0.123,0.167,0.269,0.198,0.415c0.034,0.159,0.008,0.331,0.008,0.498c0,0.166,0,0.333,0,0.5c0,0.166,0,0.333,0,0.499
		c0,0.167,0,0.333,0,0.5s0,0.333,0,0.5c0,0.166,0,0.333,0,0.499c0,0.167,0,0.334,0,0.5c0,0.167,0,0.333,0,0.5
		c0,71.628,0,143.257,0,214.885c0,42.313,0.036,84.622-0.054,126.934c-0.009,4.379,1.689,7.666,4.659,10.591
		c3.512,3.457,6.563,4.875,10.977,4.875C110.721,601.002,161.859,601,213,601c0,1.667,0,3.333,0,5
		c-51.145,0-102.287-0.021-153.432,0.032c-4.938,0.005-9.497-1.492-13.152-4.356c-4.129-3.233-6.67-7.68-7.554-13.309
		c-1.603-10.209-0.786-20.408-0.796-30.594c-0.106-104.62-0.069-209.24-0.037-313.859c0-1.881-0.5-3.817,0.879-5.653
		c0.56-0.745,0.534-2.543,0.006-3.374c-1.371-2.16-0.887-4.424-0.888-6.638c-0.033-55.142-0.027-110.284-0.021-165.426
		c0-1.482-0.306-3.111,0.193-4.418c1.264-3.306,1.528-6.856,3.679-10.002c3.096-4.528,8.038-8.279,13.081-9.509
		c3.558-0.866,7.055-0.884,10.607-0.886C114.71,37.995,163.855,38,213,38C213,39.667,213,41.333,213,43z"/>
	<path fill="#FFFFFF" d="M213,570c-45.162,0-90.323,0-135.485,0c-0.794-4.519-1.136-476.601-0.344-496c45.267,0,90.547,0,135.829,0
		c0,1.667,0,3.333,0,5c-43.495,0-86.99,0-130.485,0c-0.794,4.52-1.135,465.604-0.344,485c43.601,0,87.214,0,130.829,0
		C213,566,213,568,213,570z"/>
	<path fill="#FFFFFF" d="M213,70c-47.27,0-94.541,0-142,0c0,1.947,0,3.588,0,5.229c0,164.262,0.005,328.523-0.019,492.785
		c-0.001,5.855-0.27,6.027,5.907,6.016c28.82-0.063,57.641-0.016,86.461-0.063c1.711-0.003,3.637,0.77,5.143-0.884
		c0.162-0.177,1.023-0.019,1.287,0.251c1.275,1.31,2.843,0.622,4.238,0.629C187.012,574.026,200.006,574,213,574
		c0,0.333,0,0.667,0,1c-47.494,0-94.99,0-142.484,0c-0.795-4.517-1.137-487.606-0.344-507c47.6,0,95.214,0,142.829,0
		C213,68.667,213,69.333,213,70z"/>
	<path fill="#FFFFFF" d="M213,182c-9.805-0.23-15.146,5.447-18.406,14.147c-2.854-3.292-6.238-5.266-10.295-6.582
		c-2.169-0.704-3.619-0.412-5.332,0.438c-4.553,2.258-7.223,7.138-6.984,11.752c0.104,1.972,0.019,3.953,0.019,6.279
		c-2.168-2.457-4.204-4.536-5.967-6.826c-1.816-2.359-3.251-5.014-5.066-7.376c-1.813-2.362-3.688-4.657-5.42-7.474
		c1.743-0.332,2.069,0.835,2.617,1.389c0.754,0.759,1.164,1.847,1.826,2.713c0.596,0.781,1.411,1.396,1.985,2.189
		c0.541,0.746,0.893,1.629,1.494,2.771c1.182-2.222-0.617-3.237-1.158-4.523c-0.642-1.518-1.733-2.844-2.631-4.253
		c0.256-0.2,0.512-0.401,0.769-0.602c1.323,1.66,2.647,3.32,3.973,4.98c0.232-0.126,0.468-0.253,0.7-0.379
		c-1.081-2.415-2.163-4.83-3.245-7.245c0.244-0.135,0.486-0.27,0.729-0.404c1.324,1.968,2.65,3.937,3.966,5.888
		c1.684-1.571-0.959-3.017-0.339-5.124c0.928,0.911,1.603,1.574,2.371,2.33c0.316-0.882,0.525-1.461,0.945-2.629
		c1.055,1.437,1.9,2.591,2.746,3.746c0.25-0.135,0.5-0.269,0.75-0.402c-0.328-1.547-0.654-3.094-0.982-4.641
		c0.177-0.085,0.353-0.17,0.527-0.255c0.426,0.897,0.852,1.794,1.645,3.464c0.513-1.779,0.847-2.286,0.728-2.639
		c-0.442-1.309-1.058-2.559-1.563-3.848c-0.205-0.522-0.301-1.089,0.158-1.874c0.957,1.346,1.916,2.691,3.229,4.539
		c0.209-2.447-1.029-3.964-1.399-5.672c-0.188-0.872-0.3-1.762,0.313-2.927c0.963,1.665,1.925,3.331,2.986,5.17
		c1.321-3.322-2.504-5.809-1.406-9.341c1.445,2.652,2.717,4.985,3.986,7.317c0.244-0.084,0.485-0.168,0.729-0.253
		c-0.351-1.871-0.702-3.742-1.054-5.613c0.183-0.052,0.363-0.104,0.545-0.156c1.342,2.629,2.682,5.259,4.451,8.729
		c0-2.122,0-3.358,0-4.596c0.194-0.042,0.39-0.085,0.584-0.128c0.982,1.965,1.967,3.929,3.217,6.426
		c0.193-1.835,0.334-3.173,0.527-5.016c0.929,1.838,1.584,3.137,2.739,5.427c0-2.639,0-4.209,0-6.211
		c0.931,1.134,1.505,1.836,2.08,2.538c-0.466-2.452,0.022-4.697,0.492-7.054c0.142,0.553,0.185,1.158,0.449,1.643
		c0.25,0.456,0.733,0.783,1.112,1.167c0.287-0.478,0.938-1.165,0.804-1.401c-1.207-2.104-0.921-4.377-0.927-6.617
		c-0.002-0.282,0.227-0.565,0.531-1.277c0.668,3.01,1.258,5.664,1.848,8.319c0.158-0.001,0.317-0.001,0.478-0.001
		c0.086-3.672,0.172-7.344,0.259-11.015c0.167,0.007,0.336,0.014,0.502,0.021c0.323,1.692,0.68,3.379,0.963,5.078
		c0.262,1.564,0.444,3.142,0.676,4.8c0.49,0,0.941,0,1.746,0c0-1.644,0-3.213,0-4.784c0.16-0.018,0.319-0.035,0.479-0.053
		c0.587,1.996,1.174,3.991,1.76,5.987c0.191-0.014,0.384-0.026,0.574-0.039c0.095-1.573,0.188-3.147,0.283-4.721
		c0.157-0.047,0.315-0.094,0.473-0.141c0.582,1.887,1.164,3.773,1.94,6.293c0.343-1.468,0.562-2.406,0.785-3.372
		c0.938,0.672,1.813,1.297,2.687,1.923C213,175.333,213,178.667,213,182z"/>
	<path fill="#FFFFFF" d="M213,473c-0.518,0.648-1.035,1.297-1.549,1.94c-1.273-0.521,0.805-3.476-2.012-2.854
		c-1.529,0.829,1.153,3.934-2.465,3.912c0-1.421,0-2.674,0-3.926c-0.201-0.008-0.401-0.017-0.603-0.022
		c-0.591,2.661-1.183,5.323-1.771,7.985c-0.148-0.008-0.297-0.018-0.446-0.024c0-2.236,0-4.474,0-7.854
		c-2.772,4.261-2.322,8.234-3.569,11.843c-1.954-3.677,0.715-7.117,0.395-10.639c-3.207,0.278-1.244,3.31-2.933,5.336
		c0-3.019,0-5.269,0-7.519c-0.192-0.038-0.384-0.077-0.575-0.115c-0.631,1.286-1.262,2.572-1.932,3.938
		c-1.973-2.679,1.641-5.104,0.041-8.128c-0.83,1.102-1.549,2.055-2.59,3.435c0-2.015,0-3.615,0-6.188
		c-1.143,2.259-1.805,3.565-2.471,4.885c0-0.024,0.235-3.744,0.26-4.111c-0.66,0.214-1.496,0.23-1.678,0.583
		c-0.914,1.778-1.655,3.645-2.533,5.651c0.012-0.206,0.246-4.808,0.294-5.728c-1.128,1.683-1.899,2.678-2.499,3.769
		c-0.665,1.211-1.174,2.509-1.817,3.915c-1.737-2.107,1.398-3.846,0.103-6.046c-1.413,2.376-2.752,4.624-4.243,7.133
		c-1.275-3.085,1.378-5.292,0.956-8.18c-1.229,2.024-2.459,4.051-3.688,6.076c-0.207-0.055-0.414-0.107-0.62-0.162
		c0.643-2.559,1.283-5.116,1.926-7.675c-0.184-0.07-0.365-0.144-0.549-0.215c-0.65,0.946-1.3,1.895-1.904,2.775
		c-0.109-0.098-0.517-0.311-0.495-0.465c0.224-1.675,0.513-3.341,0.866-5.505c-1.021,0.873-1.752,1.498-2.955,2.527
		c0.442-2.074,0.772-3.62,1.104-5.168c-0.256-0.135-0.511-0.269-0.766-0.402c-0.922,1.084-1.842,2.167-2.883,3.393
		c-0.291-0.817-0.496-1.395-0.773-2.172c-0.773,0.684-1.491,1.315-2.208,1.948c-0.179-0.119-0.356-0.237-0.535-0.356
		c0.744-1.732,1.488-3.468,2.232-5.201c-0.229-0.13-0.46-0.26-0.69-0.39c-1.617,2.347-3.234,4.693-4.852,7.04
		c-0.18-0.069-0.359-0.138-0.541-0.206c0.191-0.646,0.309-1.327,0.59-1.932c1.152-2.482,2.354-4.942,3.208-7.639
		c-2.423,1.705-3.208,4.799-5.948,6.321c0.744-1.734,1.488-3.468,2.232-5.202c-0.189-0.142-0.379-0.283-0.567-0.425
		c-1.032,1.031-2.063,2.063-3.096,3.094c3.569-7.017,8.297-13.035,13.552-19.651c0,2.751,0.034,4.862-0.008,6.975
		c-0.057,2.783,0.93,5.395,2.469,7.445c3.953,5.27,8.602,5.46,14.893,2.253c1.929-0.983,3.555-2.563,5.642-4.106
		c3.086,8.247,8.242,13.93,18.006,13.035C213,465.667,213,469.333,213,473z"/>
	<path fill="#FFFFFF" d="M213,129c-1.766,0.476-1.994,1.786-2.023,3.377c-0.108,5.838-1.711,11.567-0.85,17.595
		c-1.904-0.624-2.167-1.701-2.15-3.101c0.061-4.998,0.023-9.997,0.023-14.995c0-0.939,0-1.879,0-2.818
		c-1.262,1.821-0.914,3.759-0.992,5.65c-0.083,1.978,0.6,4.426-0.328,5.822c-1.225,1.845,0.254,3.918-1.68,5.938
		c0-4.453,0-8.396,0-12.34c0-1.5,0.08-3.008-0.066-4.492c-0.029-0.306-0.912-0.526-1.934-1.068c0,2.479,0.172,4.453-0.052,6.382
		c-0.194,1.676-0.834,3.301-1.521,5.852c-0.834-5.138-0.128-9.498-0.977-13.774c-0.568,3.325-1.138,6.65-1.859,10.864
		c-1.433-5.185,0.466-9.694-1.292-13.876c-0.033-0.08-0.599,0.063-1.298,0.146c0.442,5.409-0.49,10.686-2.596,16.178
		c-1.282-4.04,1.178-7.46,0.698-11.145c-0.479-3.664-0.104-7.438-0.104-11.164c-0.334,0.003-0.666,0.006-1,0.009
		c0,2.444,0.012,4.889-0.004,7.334c-0.017,2.567-1.14,4.926-1.169,7.581c-0.025,2.171-1.096,4.514-1.622,6.721
		c-0.567,2.372-2.249,4.022-3.255,6.156c0.351-1.599,0.687-3.2,1.054-4.795c0.313-1.366,0.769-2.709,0.965-4.09
		c0.181-1.258,0.642-2.47,0.871-3.613c0.759-3.775,1.156-7.697,1.058-11.547c-0.08-3.155-0.646-6.37-1.24-9.473
		c-0.568-2.962-2.057-5.799-3.438-8.541c-2.869-5.702-7.212-9.995-12.996-12.79c-0.47-0.227-0.832-0.688-1.211-1.072
		c-0.07-0.072,0.024-0.306,0.064-0.658c2.498,0.585,4.964,1.253,7.466,1.729c4.035,0.767,6.742,1.867,10.229,4.279
		c2.069,1.431,4.282,2.679,6.373,4.039c1.682,1.093,1.885,3.324,4.275,3.919c1.676,0.417,3.114,2.563,4.031,4.616
		c0.82,1.839,2.433,3.307,3.521,5.048c1.146,1.834,2.012,3.842,3.15,5.68c0.389,0.626,1.236,0.967,1.875,1.438
		C213,123,213,126,213,129z"/>
	<path fill="#FFFFFF" d="M213,524c-1.855,0.748-1.753,2.771-2.545,4.163c-3.553,6.237-7.255,12.177-13.363,16.444
		c-2.715,1.896-5.117,4.311-8.098,5.877c-4.586,2.41-9.598,3.512-14.629,4.489c-0.744,0.146-1.553-0.047-2.93-0.11
		c9.422-4.691,16-12.073,18.229-21.183c0.857-3.513,1.52-7.18,1.422-10.967c-0.195-7.693-0.977-15.201-4.049-22.351
		c-0.281-0.655-0.037-1.536,0.676-2.408c1.096,2.834,2.059,5.73,3.323,8.487c1.353,2.944,1.071,6.166,1.798,9.225
		c0.746,3.144,0.166,6.603,0.166,9.903c1.092,0.626,1.973,0.822,1.99-0.782c0.035-3.165,0.83-6.644-0.221-9.409
		c-1.055-2.771,0.25-5.813-1.701-8.312c-0.467-0.6-0.068-1.872,0.287-2.895c0.905,3.502,2.916,6.589,2.752,10.46
		c-0.104,2.438,0.841,4.919,1.75,7.384c0-4.913,0-9.824,0-15.438c2.735,3.887,1.979,7.693,2.219,12.052
		c3.609-4.25,0.803-8.808,2.531-13.242c0.66,4.271,1.228,7.928,1.795,11.585c0.199-0.009,0.397-0.017,0.598-0.024
		c0-4.277,0-8.554,0-12.831c0-1.5-0.08-3.008,0.066-4.492c0.031-0.302,0.922-0.518,1.908-1.027c0,6.088,0,11.665,0,17.313
		c0.803,0,1.254,0,2.057,0c0-7.322,0-14.563,0-21.806c0.218-0.014,0.436-0.025,0.652-0.038c0.438,3.382,1.053,6.752,1.268,10.146
		C211.172,507.679,211,511.169,211,515c0.764,0,1.382,0,2,0C213,518,213,521,213,524z"/>
	<path fill="#FFFFFF" d="M213,249c-0.499,0-0.998,0-1.855,0c-0.33,2.559-0.09,5.179-0.135,7.777c-0.045,2.637-0.01,5.275-0.01,7.947
		c-1.625-0.332-2.078-1.217-2.027-2.654c0.096-2.659,0.027-5.323,0.027-7.985c0-3.161,0.165-6.334-0.049-9.481
		c-0.192-2.83-0.801-5.633-1.454-8.453c-0.81,3.931-0.401,7.924-0.479,11.885c-0.078,3.945-0.018,7.894-0.656,11.867
		c-0.854-7.976-1.709-15.951-2.563-23.928c-0.22,0.008-0.438,0.015-0.657,0.021c0,5.572,0,11.144,0,16.716
		c-1.307-1.952-2.313-3.821-2.211-6.161c0.057-1.343-0.731-2.7-0.893-4.08c-0.167-1.437-0.037-2.909-0.4-4.376
		c-1.058,2.538-0.313,5.28-1.475,7.921c-0.445-1.897-0.37-4.215-1.473-5.584c-1.34-1.665,0.649-4.591-2.502-5.245
		c-0.123,0.856-0.256,1.779-0.475,3.303c-4.931-9.503-11.621-17.088-18.363-26.094c9.168,3.846,16.363,8.461,22.797,15.214
		c1.192-2.542,2.069-4.787,3.324-6.824c2.146-3.485,4.727-6.461,7.536-9.342c0.863-0.885,1.343-2.14,2.187-3.051
		c0.344-0.37,1.188-0.275,1.807-0.393C213,221.667,213,235.333,213,249z"/>
	<path fill="#FFFFFF" d="M213,436c-1.064,0.16-1.811-0.238-2.586-1.032c-2.814-2.884-5.043-6.208-7.51-9.356
		c-1.87-2.389-2.904-5.137-4.742-8.002c-2.244,1.815-4.434,3.637-6.676,5.393c-4.289,3.361-8.545,6.797-15.012,8.251
		c3.561-4.747,6.719-8.764,9.659-12.933c2.854-4.045,5.486-8.246,8.36-12.598c0.391,0.977,0.619,1.547,1.031,2.578
		c1.01-3.691,1.918-7.016,2.826-10.339c0.172,0.007,0.344,0.014,0.518,0.021c0.09,2.995,0.181,5.992,0.271,8.988
		c0.178-0.006,0.356-0.012,0.536-0.018c0.441-2.642,0.884-5.282,1.322-7.924c0.438-2.646,0.872-5.291,1.515-7.938
		c0.894,5.25,0.144,10.598,0.685,16.243c2.282-3.925,1.104-7.964,1.975-11.569c0.935-3.869,0.489-7.707,0.946-11.457
		c0.246-0.106,0.395-0.229,0.475-0.193c0.143,0.063,0.346,0.22,0.346,0.338c0.017,7.113,0.015,14.229,0.015,21.441
		c0.789,0,1.239,0,1.676,0c0.136-0.322,0.354-0.605,0.354-0.892c0.023-3.829,0.183-7.668-0.024-11.485
		c-0.28-5.228,0.601-10.309,1.771-15.449c0.09,0.855,0.252,1.712,0.26,2.568c0.027,3.663,0.025,7.326,0.006,10.989
		c-0.012,1.784,0.379,3.354,2.006,4.373C213,409.333,213,422.667,213,436z"/>
	<path fill="#FFFFFF" d="M213,481c-0.991,1.158-2.018,2.288-2.965,3.48c-0.984,1.242-1.713,2.746-2.871,3.78
		c-3.078,2.75-6.328,5.31-9.378,7.834c-4.503-5.505-5.503-12.274-8.499-18.668c-5.255,5.243-11.039,8.956-17.942,11.735
		c-3.401-6.199-3.646-13.147-4.624-20.124c-4.08,2.587-8.563,4.08-12.996,5.678c-1.026,0.371-2.258,0.152-3.382,0.298
		c-1.017,0.133-2.017,0.394-3.024,0.598c-0.127-2.927,0.189-3.485,2.597-3.596c5.67-0.256,10.346-3.143,15.166-5.632
		c1.231-0.636,2.319-1.552,3.64-2.451c0.194,1.353-0.021,2.906,0.653,3.761c0.819,1.037-0.594,1.988,0.504,3.072
		c0.666,0.657,0.216,2.551,0.097,3.872c-0.111,1.226,0.523,2.089,0.957,3.116c0.469,1.114-0.258,2.468,0.86,3.682
		c0.731,0.796,0.741,2.258,1.082,3.448c7.913-2.735,13.31-8.163,18.694-14.097c1.636,6.894,2.406,13.898,7.285,19.632
		c4.926-4.34,9.554-8.426,12.963-13.698c0.228-0.35,0.781-0.485,1.185-0.722C213,477.667,213,479.333,213,481z"/>
	<path fill="#FFFFFF" d="M213,168c-0.617-0.117-1.605-0.033-1.795-0.383c-2.098-3.885-5.055-7.044-8.168-10.097
		c-1.533-1.504-3.243-2.527-5.609-2.544c-1.147,2.962-3.119,5.585-3.771,8.839c-0.611,3.055-1.654,6.017-1.771,9.75
		c-1.252-0.875-2.063-1.314-2.719-1.922c-3.229-2.994-5.947-6.558-9.84-8.812c-2.146-1.242-4.205-2.702-6.613-2.979
		c-1.982,1.935-1.541,4.533-2.533,6.672c-0.879,1.897-0.229,4.293-1.014,6.553c-0.771,2.229-0.168,4.934-0.168,7.541
		c-3.467-1.891-6.756-4.065-10.336-5.532c-3.701-1.517-7.686-2.347-11.547-3.479c0-0.776,0-1.562,0-2.657
		c6.881,1.12,13.432,2.654,19.889,6.837c-0.338-7.243,1.156-13.354,3.041-19.35c2.024-1.391,4.002-0.178,5.391,0.676
		c3.897,2.395,7.488,5.292,11.18,8.019c0.88,0.649,1.68,1.407,2.675,2.25c1.653-4.682,3.192-9.007,4.703-13.342
		c0.606-1.742,1.569-3.002,4.167-5.176c2.423,2.025,4.896,4.063,7.335,6.141c2.353,2.001,4.168,4.45,5.461,7.226
		c0.533,1.145,1.332,0.62,2.043,0.77C213,164.667,213,166.333,213,168z"/>
	<path fill="#FFFFFF" d="M213,54c-1.283,0-2.566,0-3.645,0c0.184-1.18,0.317-2.055,0.526-3.403c-3.735,1.419-4.687,4.697-6.62,6.899
		c-2,2.277-3.933,4.566-6.148,6.914c-3.914-5.491-7.594-10.653-11.535-16.186c8.348,0,16.229,0,23.475,0
		c1.524,1.458,2.736,2.617,3.947,3.775C213,52.667,213,53.333,213,54z"/>
	<path fill="#FFFFFF" d="M213,311c-0.999,0-1.998-0.011-2.998,0.002c-2.887,0.037-5.357,1.872-7.077,4.497
		c-2.194,3.35-2.347,6.497-1.104,10.349c0.803,2.48,2.162,4.051,4.063,5.061c2.154,1.145,4.484,2.297,7.116,2.093
		c0,0.667,0,1.333,0,2c-3.591,0.183-7.059,0.07-9.701-2.976c-0.682-0.784-2.498-2.857-3.359-4.586
		c-2.375-4.76-2.756-6.966-0.692-11.078c1.788-3.567,4.354-6.448,8.68-7.491c1.699-0.409,3.327-0.87,5.074-0.87
		C213,309,213,310,213,311z"/>
	<path fill="#FFFFFF" d="M213,112c-2,0.085-3.043-0.77-3.014-2.875c0.049-3.297,0.014-6.595,0.014-10.413
		c-3.678,2.742-0.869,6.482-2.574,9.52c-0.869-2.514-0.094-4.959-1.191-7.199c-0.123,1.535-0.246,3.07-0.37,4.605
		c-0.119,0.117-0.236,0.235-0.354,0.354c-0.807-0.837-1.613-1.673-2.35-2.438c1.988-4.939,6.369-8.44,8.324-13.477
		c0.188-0.482,0.996-0.724,1.516-1.077C213,96.667,213,104.333,213,112z"/>
	<path fill="#FFFFFF" d="M213,556c-2.886-4.138-5.559-8.412-8.275-12.659c-1.318-2.062-0.703-3.085,1.275-4.635
		c0,1.679,0,2.908,0,4.198c0.793,0,1.242,0,2.029,0c0-2.315,0-4.562,0-6.807c1.322,2.877,0.666,5.91,1.262,9.854
		c1.007-2.641,0.623-4.378,0.691-6.048c0.074-1.813,0.018-3.633,0.018-5.577c0.977-0.757,1.988-1.542,3-2.327
		C213,540,213,548,213,556z"/>
	<path fill="#FFFFFF" d="M213,327c-2.697-0.188-2.697-0.188-5.984-3.529c0-1.344,0-2.672,0-3.979c0.84-0.842,1.664-1.666,2.488-2.49
		C210.668,317,211.834,317,213,317C213,320.333,213,323.667,213,327z"/>
	<path fill="#FFFFFF" d="M209,589c-3.454-1.803-4.552-5.604-7.802-8.479c4.405-0.967,8.133-0.31,11.802-0.521c0,0.333,0,0.667,0,1
		c-2.613,0-5.227,0-7.913,0c0,0.775,0,1.225,0,1.596c0.208,0.188,0.328,0.391,0.45,0.392c2.486,0.019,4.975,0.014,7.463,0.014
		c0,0.333,0,0.667,0,1c-1.948,0-3.896,0-5.913,0c0,0.775,0,1.225,0,2c2.017,0,3.965,0,5.913,0c0,1,0,2,0,3
		C211.666,589,210.334,589,209,589z"/>
	<path fill="#FFFFFF" d="M213,65c-3.611,0-7.223,0-10.912,0c0-0.775,0-1.225,0-2c3.689,0,7.301,0,10.912,0
		C213,63.667,213,64.333,213,65z"/>
	<path fill="#FFFFFF" d="M209,589c1.334,0,2.666,0,4,0c0,2,0,4,0,6C211.35,593.575,209.413,590.672,209,589z"/>
	<path fill="#FFFFFF" d="M213,58c-1.948,0-3.896,0-5.913,0c0-0.775,0-1.225,0-2c2.017,0,3.965,0,5.913,0
		C213,56.667,213,57.333,213,58z"/>
	<path fill="#FFFFFF" d="M169.096,414.655c-0.148,0.378-0.203,0.931-0.507,1.221c-5.757,5.496-10.317,11.976-15.251,18.165
		c-3.465,4.348-7.258,8.405-9.479,13.599c-3.99,3.401-5.226,8.509-7.797,12.78c-3.49,5.803-6.305,14.598-8.152,21.622
		c-0.717,2.722-1.574,5.353-2.086,8.162c-0.496,2.722-0.68,5.393-0.866,8.114c-0.095,1.378-1.081,2.799-0.878,4.074
		c0.807,5.037,0.783,10.271,2.16,15.107c1.199,4.211,2.758,8.433,5.605,12.204c3.072,4.068,5.815,8.361,9.383,12.073
		c3.881,4.041,8.727,6.105,14.028,7.187c6.616,1.349,6.64,1.238,14.681-2.393c-1.621-1.935-2.912,0.049-4.183,0.483
		c-6.489,2.229-12.657,1.027-18.264-2.244c-3.716-2.169-7.171-5.024-9.498-8.891c-2.16-3.586-4.938-6.734-6.125-10.979
		c-0.775-2.775-2.076-5.448-2.989-8.255c-1.044-3.206-1.99-6.315-1.893-9.709c0.066-2.332,0.05-4.666,0.005-7
		c-0.093-4.823,1.504-9.34,2.493-13.968c1.269-5.922,3.541-11.529,5.604-17.182c1.207-3.31,3.297-6.297,5.015-9.416
		c0.229-0.416,0.756-0.712,0.871-1.137c1.266-4.702,5.077-7.837,7.355-11.939c2.214-3.985,5.527-7.346,7.972-11.223
		c3.582-5.683,8.408-10.376,12.161-15.927c1.446-2.14,3.911-3.589,6.573-5.936c-0.072,3.204-1.931,4.589-3.003,6.023
		c-3.48,4.653-7.629,8.806-11.157,13.429c-5.258,6.887-10.298,13.951-14.856,21.331c-2.447,3.962-4.824,7.98-6.981,12.105
		c-2.222,4.243-3.396,8.925-5.093,13.388c-1.604,4.22-2.647,8.616-3.693,12.937c-1.131,4.663-0.893,9.659-1.252,14.51
		c1.637,2.179,0.616,4.739,1.057,7.074c0.398,2.107,1.166,4.169,1.975,6.169c0.863,2.142,2.431,4.092,2.873,6.29
		c1.33,6.602,5.925,10.824,10.361,15.211c0.271,0.269,0.863,0.207,2.313,0.508c-1.042-1.121-1.483-1.614-1.945-2.089
		c-0.579-0.599-1.178-1.18-1.765-1.771c-5.934-5.977-8.73-12.323-10.896-20.988c-0.422-1.688-1.07-3.259-1.048-5.093
		c0.021-1.69-0.884-3.396-0.847-5.082c0.041-1.868-0.96-3.989,0.83-5.631c0.093-0.085,0.109-0.311,0.085-0.455
		c-0.819-4.777,1.557-9.075,2.151-13.652c0.469-3.601,2.155-7.062,3.445-10.531c1.774-4.774,3.967-9.37,6.411-13.842
		c2.406-4.396,5.039-8.643,8.035-12.679c3.101-4.175,5.896-8.576,8.989-12.757c2.666-3.604,5.615-6.997,8.345-10.557
		c2.606-3.396,5.071-6.898,7.639-10.325c0.927-1.235,1.702-2.748,4.062-2.82c-0.176,0.802-0.178,1.41-0.436,1.878
		c-1.455,2.653-3.16,5.104-5.229,7.363c-1.793,1.959-3.064,4.387-4.662,6.536c-2.188,2.943-4.51,5.787-6.695,8.732
		c-5.712,7.703-11.363,15.43-16.158,23.782c-1.781,3.102-3.533,6.182-5.094,9.404c-3.209,6.633-5.662,13.96-6.797,21.185
		c-2.24,2.146-0.496,5.159-1.768,7.783c-1.113,2.293-0.361,5.561-0.207,8.385c0.416,7.63,2.254,14.719,6.529,21.322
		c1.956,3.022,4.032,5.764,6.537,8.247c3.655,3.624,8.09,5.428,13.246,5.425c0.333,0,0.674-0.045,0.999,0.007
		c6.451,1.018,11.263-2.564,16.008-5.972c2.107-1.513,3.673-3.781,5.654-5.888c0,0.675,0.157,1.351-0.024,1.917
		c-1.67,5.207-5.716,11.417-9.978,14.307c-2.383,1.616-5.211,2.835-8.011,3.473c-1.519,0.347-2.946,1.162-4.551,1.158
		c-2.832-0.007-5.761,0.449-8.475-0.118c-3.283-0.686-7.059-0.629-9.395-3.814c-4.746-1.585-8.244-4.91-11.461-8.505
		c-6.051-6.761-10.502-14.396-12.107-23.472c-2.21-2.154-0.51-5.159-1.77-7.782c-1.105-2.302-0.23-5.555-0.23-8.388
		s-0.609-5.84,0.137-8.46c1.254-4.391,0.414-9.204,2.863-13.295c-0.414-4.68,2.359-8.322,3.982-12.349
		c1.569-3.896,3.606-7.513,5.633-11.188c3.115-5.651,6.856-10.831,10.234-16.268c1.449-2.332,3.754-3.813,4.909-6.432
		c1.002-2.269,3.113-4.07,4.826-5.998c3.261-3.668,6.569-7.291,9.905-10.892c0.494-0.533,1.238-0.837,2.326-0.841
		c-1.197,1.691-2.28,3.479-3.617,5.052c-2.747,3.229-5.776,6.229-8.43,9.53c-4.949,6.162-9.871,12.323-13.871,19.223
		c-2.648,4.571-4.949,9.292-7.35,13.974c-2.822,5.508-5.018,11.374-6.332,17.329c-0.908,4.114-2.625,8.17-2.292,12.629
		c0.334,4.475,0.245,9.002,0.03,13.49c-0.268,5.555,1.557,10.557,3.535,15.554c0.795,2.004,1.647,3.983,2.521,5.954
		c0.251,0.565,0.639,1.079,1.021,1.571c0.135,0.173,0.443,0.209,0.988,0.442c-0.728-2.238-1.213-4.31-2.058-6.223
		c-1.731-3.928-2.245-8.1-3.161-12.228c-1.242-5.6-0.729-11.11-0.66-16.625c0.039-3.04,1.143-6.209,1.502-9.255
		c0.416-3.518,1.985-6.627,2.432-10.075c0.209-1.616,1.443-3.072,1.889-4.69c1.623-5.914,5.029-10.938,7.913-16.224
		c2.42-4.434,5.589-8.368,8.489-12.479c2.934-4.159,5.957-8.251,9.045-12.303c4.068-5.337,8.462-10.291,13.208-14.982
		C167.357,414.142,168.04,413.396,169.096,414.655z"/>
	<path fill="#FFFFFF" d="M90.006,530.084c1.523-9.485,4.108-18.563,5.932-28.198c-1.937,1.224-3.578,2.261-5.881,3.714
		c1.886-9.646,4.977-18.372,5.862-27.572c-2.684-0.07-4.223,3.053-6.844,1.645c0.658-2.819,1.02-5.636,1.978-8.232
		c2.615-7.095,5.107-14.264,9.523-20.541c1.631-2.317,3.826-2.09,6.527-1.651c-0.895,3.028-2.45,5.641-4.078,8.184
		c-1.028,1.606-2.188,3.182-3.54,4.517c-1.754,1.733-2.303,4.065-3.447,6.094c-0.264,0.467-0.039,1.211-0.039,2.123
		c2.396-1.958,2.384-5.478,5.63-6.293c-0.361,3.27-1.834,6.088-1.665,9.234c0.058,1.071,0.446,2.271-0.699,3.228
		c-0.356,0.297-0.44,1.317-0.229,1.838c2.049,5.038-0.556,9.354-2.013,13.854c-0.072,0.222,0.217,0.56,0.377,0.937
		c0.362-0.3,0.701-0.58,1.125-0.932c2.553,3.835,1.124,8.151,1.458,12.234c0.324,3.962-0.058,7.849-2.465,11.423
		c0.345,0.1,0.69,0.198,1.035,0.299c0.738-1.025,1.476-2.051,2.458-3.416c0.765,1.229,2.022,2.32,1.877,3.176
		c-0.694,4.096,2.887,8.056,0.196,12.235c-0.588,0.914-0.086,2.53-0.086,5.039c1.163-2.377,1.795-3.669,2.463-5.034
		c1.37,2.686,2.71,5.313,4.052,7.939c0.323-3.575-1.521-6.509-2.455-9.701c-0.956-3.251-1.442-6.639-1.484-10.251
		c1.613,2.025,3.229,4.05,4.842,6.074c0.205-0.098,0.408-0.195,0.613-0.294c-0.229-0.637-0.338-1.356-0.707-1.896
		c-3.078-4.5-6.05-9.008-7.538-14.391c-0.283-1.025-0.771-2.04-0.777-3.153c-0.02-3.979-0.008-7.96,0.231-12.115
		c1.017,2.065,2.859,3.211,4.581,5.249c0.061-1.11,0.265-1.666,0.074-1.997c-0.545-0.955-1.261-1.813-1.892-2.721
		c-2.354-3.387-3.41-7.066-3.054-11.252c0.264-3.097,0.052-6.232,0.052-10.309c1.896,2.468,3.188,4.149,4.48,5.832
		c-1.639-5.97-4.237-11.788-0.829-18.142c1.284,8.263,2.836,16.3,6.858,24.536c-2.652-0.916-4.445-1.534-6.374-2.199
		c-0.693,4.091,0.923,7.85,2.197,11.438c1.272,3.582,1.942,7.564,5.497,10.844c-1.609,0.256-2.559,0.693-3.28,0.452
		c-1.127-0.376-2.1-1.213-3.147-1.86c-0.405,3.521,0.264,6.02,1.539,9.553c1.586,4.396,3.388,8.641,6.064,12.479
		c1.426,2.045,2.914,4.046,4.969,6.89c-1.955-0.51-2.871-0.757-3.793-0.986c-0.986-0.247-1.977-0.48-2.965-0.719
		c2.135,6.817,13.84,19.277,28.852,27.497c-5.086,0.921-9.746-0.533-14.2-1.918c-4.224-1.313-8.089-3.771-12.541-5.937
		c-1.414,2.512-2.92,5.187-4.627,8.22c-3.372-2.98-4.913-7.16-8.13-10.048c-3,2.235-4.891,5.992-9.432,7.046
		c0.316-1.606,0.512-3.021,0.883-4.385c0.444-1.637,1.138-3.208,1.536-4.853c0.372-1.535,0.071-3.396,0.839-4.633
		c1.024-1.648,0.341-3.203,0.596-4.77c0.276-1.694-0.718-3.626,0.956-5.06c-1.7-1.324,1.16-2.78-0.458-4.351
		C95.172,525.951,92.756,527.884,90.006,530.084z M104.687,540.067c0.799-2.222,1.599-4.442,2.397-6.659
		c-0.557-0.202-1.018-0.469-1.094-0.384C104.266,534.916,103.817,537.182,104.687,540.067z"/>
	<path fill="#FFFFFF" d="M93,91.93c3.645,2.897,6.258,4.975,9.129,7.257c3.074-2.594,5.104-6.195,8.014-9.771
		c1.549,3.041,2.912,5.716,4.383,8.602c0.875-0.314,2.108-0.402,2.797-1.061c4.269-4.078,10.229-4.345,15.176-6.871
		c0.793-0.405,1.963-0.063,2.957-0.089c1.911-0.048,3.861,0.281,5.613-0.954c0.41-0.289,1.199-0.043,2.608-0.043
		c-12.815,7.088-24.016,14.698-30.604,27.51c1.941,2.041,4.004-2.104,6.162,0.292c-4.68,5.776-8.914,11.954-11.188,19.188
		c-0.808,2.567-1.082,5.304-1.576,7.968c-0.017,0.093,0.219,0.232,0.336,0.351c0.118,0.117,0.235,0.235,0.592,0.591
		c0.731-0.606,1.429-1.427,2.313-1.85c0.908-0.434,2.002-0.479,3.413-0.778c-3.068,7.266-7.193,14.172-7.201,22.325
		c2.809,1.476,4.334-1.708,6.883-1.574c-4.49,7.416-5.938,15.592-7.267,24.502c-3.386-5.893-0.59-11.07,0.563-17.376
		c-1.686,2.093-2.702,3.354-3.86,4.791c-0.081-1.029-0.147-2.074-0.248-3.114c-0.243-2.506,0.651-5.135-0.814-7.507
		c1.874-1.044-0.853-1.646-0.228-2.771c1.42-2.558,2.44-5.345,3.942-7.846c0.871-1.449,1.83-2.748,1.592-4.686
		c-1.291,1.686-2.581,3.371-4.49,5.866c0-5.691-0.083-10.468,0.06-15.237c0.035-1.164,0.698-2.367,1.273-3.445
		c1.892-3.549,3.875-7.048,5.393-11.056c-0.486,0.362-1.002,0.692-1.451,1.097c-0.617,0.557-1.186,1.17-1.773,1.759
		c-0.542-3.428-0.391-4.051,2.164-11.181c1.234-3.446,2.34-6.939,2.806-10.702c-1.698,3.364-3.396,6.729-5.505,10.905
		c-0.995-2.552-1.666-4.272-2.618-6.715c-0.202,1.254-0.47,1.793-0.318,2.154c1.856,4.431,0.82,9.065,0.877,13.594
		c0.026,2.105-0.497,4.414-2.385,5.908c-0.638-0.991-1.278-1.987-2.581-4.014c0.163,5.134,2.204,8.697,2.175,12.696
		c-0.029,4.086-0.928,8.005-1.342,12.323c-0.503-0.339-0.92-0.619-1.86-1.25c0.417,2.21,0.397,4.174,1.206,5.696
		c0.573,1.079,0.898,1.994,0.887,3.148c-0.023,2.499-0.137,5.007,0.03,7.494c0.16,2.372,0.572,4.734,0.98,7.082
		c0.317,1.825,0.798,3.623,1.313,5.899c-3.176-2.459-3.176-2.459-4.926-6.377c-0.933,3.488,0.999,5.802,2.621,7.691
		c3.224,3.757,5.585,7.982,7.955,12.242c0.133,0.24-0.018,0.64-0.053,1.253c-2.989,0.394-5.007,0.053-7.088-3.08
		c-4.363-6.569-7.012-13.774-9.552-21.069c-0.808-2.32-0.845-4.91-1.249-7.469c1.922,0.725,3.69,1.392,5.566,2.099
		c1.333-5.067-0.739-9.225-1.636-13.511c-0.882-4.213-2.018-8.373-3.27-13.485c2.076,1.291,3.331,2.072,4.866,3.027
		c1.244-3.559-0.779-6.402-1.181-9.401c-0.412-3.078-1.355-6.086-2.051-9.127c-0.67-2.931-1.322-5.866-2.043-9.07
		c3.171,0.992,4.21,4.415,7.508,5.556c-0.048-3.779,1.032-7.23-0.626-10.684c-0.901-1.878,0.668-4.157-1.006-6.113
		c-0.71-0.829-0.292-2.54-0.855-3.602c-0.598-1.126,0.23-2.589-1.228-3.586C92.56,95.975,93,94.204,93,91.93z M105.486,112.341
		c1.333-2.968-0.521-4.949-0.883-7.157c-0.015-0.089-1.045-0.011-1.889-0.011C103.674,107.654,104.487,109.758,105.486,112.341z"/>
	<path fill="#FFFFFF" d="M169.674,230.506c-2.015-0.657-3.222-0.713-3.916-1.339c-2.351-2.114-5.207-4.083-6.564-6.769
		c-1.373-2.71-3.852-4.205-5.396-6.705c-1.885-3.047-4.357-5.854-6.539-8.81c-5.137-6.965-9.885-14.153-14.308-21.588
		c-2.39-4.018-3.886-8.403-5.921-12.559c-1.506-3.07-2.064-6.48-3.021-9.746c-2.756-9.405-2.248-19.085-1.859-28.662
		c0.18-4.425,1.238-8.958,3.145-13.143c1.007-2.213,1.865-4.493,2.992-7.229c-3.014,1.155-2.57,4.174-4.285,5.578
		c-0.473,3.895-3.254,7.121-3.242,11.172c0.002,0.39-0.691,0.763-0.729,1.174c-0.381,4.357-0.736,8.718-1.016,13.084
		c-0.187,2.908,1.282,5.582,1.096,8.591c-0.176,2.83,0.287,5.782,0.961,8.563c0.795,3.286,2.147,6.434,3.199,9.661
		c2.404,7.382,6.116,14.158,9.754,20.958c3.266,6.108,7.233,11.766,11.444,17.27c5.33,6.967,11.175,13.462,18.12,20.023
		c-1.806-0.394-3.4,1.14-3.589-1.354c-5.046-2.686-7.412-7.986-11.356-11.787c-3.98-3.834-7.182-8.555-10.328-13.157
		c-5.527-8.083-10.279-16.624-14.646-25.412c-2.18-4.385-3.295-9.015-4.596-13.595c-2.896-10.196-2.353-20.734-1.913-31.145
		c0.179-4.231,1.856-8.447,3.266-12.583c2.028-5.952,5.169-11.123,9.616-15.514c1.641-1.62,2.811-3.645,4.844-4.953
		c2.016-1.298,3.658-3.169,5.652-4.511c3.699-2.49,7.535-4.648,12.33-4.064c2.136,0.26,4.328,0.043,6.494,0.044
		c7.367,0.004,14.246,4.034,18.729,10.363c1.289,1.82,2.299,3.732,3.357,5.641c0.422,0.76,0.438,1.743,0.342,2.864
		c-3.044-2.831-6.176-5.342-9.704-7.429c-2.407-1.424-4.92-1.837-7.45-2.618c-2.639-0.814-4.654-0.608-7.273-0.032
		c-3.225,0.708-5.805,2.019-8.523,3.712c-2.839,1.768-4.652,4.199-6.667,6.698c-3.198,3.973-4.733,8.727-6.928,13.164
		c-0.531,1.075,0.255,2.836-0.323,3.848c-1.891,3.31-0.803,6.784-0.814,10.133c-0.013,3.354-1.148,6.895,0.846,10.106
		c-0.293,5.025,2.461,9.396,3.078,14.232c0.074,0.577,0.59,1.084,0.803,1.659c2.908,7.866,6.637,15.323,11.18,22.367
		c1.875,2.904,3.707,5.857,5.832,8.574c4.217,5.392,7.811,11.227,12.266,16.465c3.673,4.316,6.64,9.229,10,13.817
		c0.937,1.277,2.16,2.343,3.3,3.556c-1.853,1.521-3.242,1.083-4.048-0.322c-3.641-6.354-8.664-11.707-12.969-17.557
		c-3.871-5.262-8.106-10.386-12.016-15.639c-4.512-6.063-8.157-12.802-11.461-19.695c-2.543-5.304-4.693-10.743-6.637-16.252
		c-1.133-3.21-1.256-6.752-2.232-10.075c-0.576-1.957-0.838-4.033-1.009-6.075c-0.166-1.986-0.009-3.997-0.041-5.997
		c-0.103-6.437,2.086-12.317,4.2-18.26c2.197-6.171,5.986-11.154,10.828-15.761c-0.424-0.188-0.76-0.335-1.094-0.489
		c-0.279-0.129-0.558-0.268-0.953-0.459c3.295-3.567,7.475-5.183,12.11-5.493c4.611-0.309,9.271-0.389,13.836,1.597
		c-0.222-0.296-0.38-0.723-0.676-0.866c-4.213-2.038-8.658-3.488-13.333-2.691c-3.632,0.618-7.032,2.298-10.335,3.961
		c-1.537,0.773-3.011,1.871-4.188,3.126c-4.705,5.005-9.342,10.187-12.275,16.411c-2.17,4.604-3.35,9.636-4.315,14.75
		c-0.806,4.265-1.081,8.484-0.651,12.608c0.502,4.807,0.547,9.805,2.65,14.356c-0.533,3.188,2.036,5.492,2.379,8.568
		c0.312,2.783,2.114,5.403,3.281,8.087c1.166,2.684,2.118,5.497,3.589,8.005c3.56,6.065,6.942,12.219,11.157,17.919
		c3.674,4.968,7.763,9.637,11.08,14.873c0.436,0.687,1.189,1.163,1.742,1.786C162.994,222.891,165.943,226.26,169.674,230.506z"/>
	<path fill="#FFFFFF" d="M125.936,336.396c1.996-1.664,3.99-3.328,6.067-5.061c-2.458-1.27-4.603,1.994-7.007,0.18
		c1.357-0.682,2.676-1.343,4.736-2.377c-4.006,0.398-7.246,0.721-10.486,1.043c-0.047-0.22-0.096-0.438-0.143-0.658
		c2.34-0.871,4.682-1.742,7.021-2.613c-0.038-0.247-0.077-0.494-0.115-0.742c-1.591-0.057-3.183-0.135-4.773-0.162
		c-1.643-0.027-3.285-0.006-5.15-0.006c2.291-1.83,2.339-1.636,5.338-2.038c1.838-0.247,3.626-0.871,5.871-1.435
		c-4.104-1.958-8.311-2.026-12.285-3.417c3.582,0,7.164,0,11.494,0c-0.74-1.095-0.996-1.933-1.445-2.054
		c-1.955-0.524-3.966-0.841-5.934-1.493c3.199-0.765,6.366-0.927,9.559,0.491c0.364-1.204-0.674-1.437-1.115-1.906
		c-0.315-0.336-1.018-0.312-1.5-0.771c1.632-0.184,3.273-1.196,5.039,1.466c-0.254-4.385-3.823-4.33-5.401-7.03
		c1.694,0.521,2.864,0.882,5.146,1.584c-2.218-2.189-3.563-3.52-5.303-5.236c2.409-0.362,3.717,1.271,5.674,1.146
		c-2.082-1.928-4.166-3.854-6.769-6.263c3.776-0.187,4.31,4.175,7.582,3.919c-1.104-2.291-3.718-3.063-4.228-6.065
		c1.453,0.941,2.512,1.627,3.645,2.36c0.158-0.533,0.363-0.898,0.279-0.985c-1.56-1.612-3.152-3.192-5.553-5.593
		c4.715,1.079,5.916,5.647,9.803,6.079c0.179-2.363-2.222-2.771-3.135-4.907c1.021,0.354,1.811,0.41,2.272,0.827
		c1.528,1.375,2.938,2.88,5.024,3.841c-0.646-1.077-1.289-2.154-2.131-3.563c2.444,0.254,4.096,1.511,6.092,2.665
		c-0.393-1.065-0.783-2.131-1.566-4.26c1.577,1.327,2.313,1.945,3.408,2.867c0.188-2.796-2.855-3.65-2.764-6.37
		c0.909,0.347,1.678,0.639,2.557,0.972c1.313-2.076-2.443-2.459-1.514-4.821c0.959,0.447,1.524,1.375,2.869,2.402
		c-0.326-1.197-0.392-1.909-0.709-2.48c-0.443-0.8-1.076-1.494-1.802-2.466c2.549-0.287,3.162,2.104,5.781,3.138
		c-1.5-2.572-2.509-4.3-3.488-5.98c0.243-0.243,0.345-0.393,0.485-0.467c0.082-0.043,0.271-0.008,0.341,0.063
		c1.604,1.591,3.201,3.191,5.385,4.475c-0.731-1.748-1.465-3.496-2.269-5.411c3.162,0.906,3.832,3.806,6.089,6.211
		c-0.199-1.237-0.257-1.87-0.414-2.479c-0.142-0.547-0.394-1.065,0.021-2.002c1.267,1.668,2.531,3.336,3.914,5.156
		c0.4-0.854,0.711-1.516,1.188-2.529c0.557,2.91,1.048,5.478,1.6,8.362c-2.606,0-4.745-0.073-6.877,0.016
		c-4.411,0.184-7.323,3.762-7.307,7.272c0.016,3.045-0.65,6.195,1.17,9.454c-3.326,0.091-6.157,1.256-8.642,3.201
		c-6.278,4.917-6.758,17.796,1.412,21.533c1.498,2.504,4.613,0.879,6.45,2.522c0.119,0.106,0.249,0.202,0.618,0.498
		c-1.656,3.045-1.121,6.472-0.957,9.798c0.098,1.939,1.01,3.576,3.104,4.819c3.783,2.245,7.395,2.478,11.463,0.821
		c-0.697,2.689-1.369,5.281-2.072,7.992c-0.327-0.263-0.658-0.527-1.205-0.966c-1.275,1.665-2.568,3.351-3.859,5.035
		c-0.19-0.087-0.382-0.174-0.572-0.261c0.359-1.168,0.72-2.336,1.08-3.504c-0.207-0.112-0.412-0.226-0.616-0.336
		c-1.329,1.347-2.658,2.692-3.987,4.039c-0.165-0.082-0.329-0.164-0.493-0.246c0.259-0.629,0.563-1.245,0.757-1.895
		c0.16-0.536,0.189-1.109,0.387-2.367c-2.572,2.572-4.579,4.579-6.586,6.586c0.287-3.065,2.627-4.914,3.672-7.358
		c-0.279-0.279-0.381-0.431-0.521-0.503c-0.083-0.043-0.27-0.006-0.341,0.063c-1.604,1.591-3.2,3.191-4.835,4.827
		c-1.584-2.369,2.428-2.664,1.241-5.008c-0.79,0.645-1.542,1.259-2.433,1.986c-0.103-0.559-0.416-1.241-0.23-1.43
		c1.469-1.478,2.479-3.167,3.037-5.021c-0.33-0.329-0.44-0.528-0.568-0.54c-0.105-0.01-0.23,0.203-0.352,0.311
		c-0.232,0.206-0.469,0.406-1.328,1.149c0.529-1.761,0.857-2.851,1.206-4.007c-0.681-0.318-1.357-0.637-1.894-0.889
		c0.36-0.72,0.694-1.387,1.069-2.133c-0.528-0.093-0.833-0.25-0.988-0.156c-1.575,0.938-3.128,1.914-5.657,3.483
		c1.293-2.069,1.961-3.14,2.703-4.329c-0.592-0.093-0.935-0.249-1.047-0.148c-1.076,0.963-2.115,1.969-3.059,2.861
		c-2.463-1.141-0.698-1.893-0.123-2.836c-0.489-0.12-1.148-0.477-1.348-0.302c-1.492,1.305-2.858,2.751-4.34,4.069
		c-0.516,0.461-1.24,0.689-2.365,0.405c2.004-2.005,4.01-4.01,6.769-6.77c-1.573,0.476-2.385,0.487-2.834,0.897
		c-1.724,1.567-3.297,3.299-5.001,4.889c-0.374,0.349-1.055,0.367-1.52,0.516c2.699-2.699,5.332-5.332,7.963-7.965
		c-0.166-0.28-0.334-0.563-0.502-0.842c-0.604,0.07-1.383-0.073-1.778,0.251c-1.152,0.946-2.106,2.133-3.238,3.108
		c-0.377,0.324-1.056,0.299-2.618,0.685c2.477-2.409,4.172-4.06,5.866-5.707c-0.125-0.214-0.25-0.425-0.375-0.638
		c-1.077,0.373-2.153,0.746-3.237,1.121c-0.095-0.348-0.285-0.721-0.201-0.798c0.949-0.881,1.942-1.716,2.509-3.271
		c-1.171,0.357-2.341,0.715-3.513,1.072C126.162,336.842,126.049,336.619,125.936,336.396z"/>
	<path fill="#FFFFFF" d="M174,134.372c0,0.627-0.275,1.504,0.043,1.882c2.711,3.218,1.891,7.039,1.936,10.694
		c0.025,2.163-0.779,2.818-2.797,3.072c-3.715,0.469-6.781-1.019-10.037-3.144c-0.576,4.908,1.119,10.368-3.289,13.796
		c-4.68-1.056-7.235-4.731-10.455-7.742c-1.442,3.42-2.776,6.84-6.129,9.073c-2.822-7.744-4.889-15.598-3.84-24.002
		c0.91,2.721-0.012,6.123,3.144,7.973c-1.084-2.277-0.382-4.56-0.011-6.915c0.871,2.022,1.74,4.045,2.611,6.067
		c0.342-2.738-0.965-5.288,0.241-8.243c1.081,2.16,2.062,4.118,3.347,6.686c0.141-2.461,0.248-4.347,0.385-6.74
		c1.567,2.946,2.927,5.499,4.531,8.514c0.141-1.095,0.398-1.821,0.275-2.477c-0.139-0.731-0.836-1.375-0.91-2.096
		c-0.15-1.462-0.045-2.95-0.045-4.703c2.209,0.542,1.92,3.19,4.377,4.223c-0.564-1.277-0.926-1.884-1.1-2.54
		c-0.199-0.755-0.232-1.553-0.33-2.273c1.011-0.785,1.154,0.271,1.541,0.559c0.66,0.491,1.197,1.151,1.785,1.739
		c0.42,0.417,0.84,0.833,1.854,0.885c-1.086-2.416-2.17-4.833-3.255-7.249c0.204-0.143,0.407-0.285,0.61-0.427
		c2.677,2.676,5.353,5.352,8.028,8.028c-0.489-4.035-4.211-6.204-5.577-10.598c1.906,1.203,3.172,2.001,4.438,2.798
		c-0.727-2.557-2.936-3.855-4.924-6.742c3.297,1.486,5.713,2.574,7.813,3.521c-1.526-1.527-3.196-3.197-4.997-4.999
		c2-1.418,2.991-1.089,4.182-0.147c0.861,0.682,2.137,0.841,3.656,0.481c-2.927-2.314-5.853-4.63-8.933-7.067
		c3.579-0.803,6.129,2.893,9.875,2.504c-2.313-3.304-6.293-3.929-8.998-6.423c3.507-1.237,6.397,0.904,9.671,1.804
		c-1.749-2.606-6.435-4.987-12.642-6.566c4.739-1.029,12.373,0.683,16.739,4.944c4.556,4.444,6.623,10.316,6.185,16.854
		C179.48,132.961,177.84,133.884,174,134.372z"/>
	<path fill="#FFFFFF" d="M173.729,509.326c2.371,1.673,5.099,1.599,7.006,3.578c0.806,0.835,1.634,1.619,2.425,2.467
		c1.313,1.408-0.242,1.91-0.195,2.815c0.228,4.298-0.84,8.19-3.963,11.341c-0.458,3.304-3.743,3.782-5.771,5.33
		c-1.857,1.416-4.453,2.232-7.063,2.151c-1.636-0.051-3.272-0.01-5.871-0.01c1.074-0.661,1.363-0.996,1.623-0.976
		c4.466,0.357,7.597-2.484,11.082-4.595c-3.69,0.019-7.151,1.774-11.217,1.524c4.721-2.896,9.046-5.549,13.371-8.202
		c-0.085-0.222-0.169-0.443-0.253-0.665c-0.653,0.157-1.352,0.215-1.951,0.488c-1.965,0.895-3.889,1.881-5.842,2.801
		c-0.555,0.262-1.147,0.46-1.744,0.604c-0.297,0.072-0.639-0.04-1.442-0.111c1.843-2.937,5.414-3.626,7.101-6.683
		c-2.445-0.018-4.5,1.478-7.078,1.869c1.971-1.963,3.646-3.632,5.324-5.301c-0.166-0.258-0.332-0.516-0.498-0.773
		c-0.64,0.223-1.299,0.396-1.914,0.674c-1.797,0.812-3.576,1.662-6.064,2.825c1.456-3.2,4.748-4.217,5.418-7.863
		c-1.857,1.547-3.137,2.611-4.416,3.678c1.048-4.623,5.182-7.444,6.46-12.716c-3.558,3.895-6.558,7.18-10.03,10.98
		c-0.024-3.202,1.547-5.045,2.746-7.023c0.394-0.646,0.83-1.268,0.979-2.141c-2.933,1.402-4.622,4.083-7.058,6.227
		c1.075-2.418,2.152-4.836,3.229-7.254c-0.236-0.133-0.471-0.265-0.707-0.396c-1.305,1.673-2.611,3.346-3.951,5.063
		c-1.723-3.586,1.213-6.56,0.762-10.128c-1.593,3.003-3.185,6.007-5.227,9.858c0-2.816,0-4.727,0-6.635
		c-0.214-0.033-0.428-0.065-0.643-0.098c-0.612,1.649-1.227,3.301-2.187,5.884c0-3.479,0-6.047,0-9.112
		c-2.101,3.018-2.135,3.108-2.553,6.667c-1.193-2.746-0.06-5.206-1.261-8.174c-1.092,4.019-1.994,7.34-2.896,10.661
		c-0.152,0.004-0.307,0.009-0.458,0.013c0-2.277-0.522-4.726,0.146-6.786c0.677-2.079,0.609-4.087,0.912-6.125
		c0.315-2.133,1.109-4.192,1.666-6.293c0.516-1.939,0.993-3.891,1.588-6.232c3.41,2.184,4.549,5.463,6.281,8.71
		c0.785-0.557,1.559-1.042,2.26-1.613c2-1.629,3.922-3.358,5.972-4.922c1.771-1.352,3.733-0.876,4.075,1.207
		c0.309,1.873,1.591,3.475,1.17,5.583c-0.344,1.725-0.069,3.571-0.069,6.124c4.103-3.212,8.317-2.642,12.651-2.604
		C178.252,500.033,177.244,504.675,173.729,509.326z"/>
	<path fill="#FFFFFF" d="M102.063,299.662c-0.354-1.123-0.691-2.252-1.065-3.369c-1.376-4.111-1.317-8.396-0.919-12.57
		c0.713-7.487,2.949-14.47,8.596-19.901c0.96-0.924,1.921-1.853,2.823-2.829c5.309-5.739,12.309-8.476,19.438-10.985
		c0.147-0.053,0.352-0.057,0.494,0.002c0.53,0.219,1.049,0.473,1.571,0.714c-0.338,0.426-0.621,1.157-1.022,1.23
		c-4.355,0.795-8.043,3.139-11.902,5.063c-4.781,2.382-8.479,6.232-11.629,10.296c-2.485,3.207-4.422,7.266-5.237,11.227
		c-0.865,4.2-2.289,8.681-1.072,12.995c0.604,2.145,0.659,4.339,1.671,6.457c0.064-1.408,0.45-2.896,0.129-4.21
		c-0.795-3.27-0.269-6.426-0.089-9.688c0.218-3.957,1.528-7.459,3.356-10.641c3.35-5.829,8.688-9.815,14.268-13.422
		c3.644-0.072,6.358-3.421,10.354-2.975c0,0.876,0,1.66,0,2.514c-1.115,0.432-2.389,0.987-3.702,1.422
		c-6.04,1.999-11.579,4.828-16.073,9.455c-2.765,2.848-5.643,8.861-6.021,12.988c-0.146,1.591-1.077,2.874-1.117,4.578
		c-0.136,5.835,1.896,11.176,3.278,16.67c0.227,0.898,0.472,1.803,0.832,2.652c0.295,0.698,0.772,1.318,1.119,1.889
		c-3.722,2.9-7.256,5.656-11.01,8.581c-0.579-0.858-1.487-1.944-2.106-3.175c-1.912-3.801-4.84-7.09-6.199-11.556
		c5.236,2.367,10.049,4.544,14.875,6.727c0.327-0.327,0.68-0.681,1.079-1.079c-0.066-0.202-0.072-0.533-0.231-0.645
		c-1.026-0.719-2.072-1.955-3.135-1.979c-4.909-0.113-5.992-3.9-7.388-7.32c-3.044-7.46-3.912-15.389-2.834-23.204
		c0.745-5.406,2.252-10.906,5.758-15.567c2.78-3.696,5.009-7.86,8.54-10.906c2.99-2.58,6.247-4.89,9.554-7.063
		c4.147-2.726,8.89-4.321,13.522-5.909c2.962-1.014,6.449-0.421,9.492-1.285c1.502-0.428,2.127-0.427,3.136,1.063
		c-1.97,0.722-3.863,2.021-5.714,1.963c-3.492-0.113-6.607,1.117-9.627,2.247c-5.494,2.057-10.938,4.663-15.498,8.283
		c-4.407,3.499-8.688,7.473-11.35,12.692c-2.512,4.929-3.785,7.047-5.202,13.875c-0.854,4.116-0.528,8.091-0.743,12.122
		c-0.063,1.173,0.721,2.367,0.904,3.585c0.164,1.088,0.035,2.22,0.035,3.688c0.588-0.489,0.806-0.584,0.809-0.686
		c0.077-2.973,0.374-5.966,0.145-8.917c-0.628-8.097,2.126-15.342,6.181-21.919c3.338-5.415,7.768-10.032,13.623-13.299
		c4.648-2.594,9.533-4.372,14.445-6.182c2.021-0.744,4.229-0.984,6.475-1.479c-0.914,3.381-3.795,4.407-6.268,4.995
		c-5.43,1.289-9.959,4.105-14.721,6.771c-7.457,4.176-12.417,10.168-15.8,17.851c-0.972,2.208-1.412,4.424-2.024,6.678
		c-0.741,2.728-0.958,5.396-0.82,8.114c0.104,2.039,1.007,4.088,0.848,6.076c-0.165,2.073,1,3.677,1.176,5.584
		c0.067,0.728,0.916,1.384,1.408,2.073C101.672,299.902,101.867,299.782,102.063,299.662z"/>
	<path fill="#FFFFFF" d="M103.274,347.046c-0.425,3.476-0.868,6.949-1.26,10.429c-0.093,0.823-0.307,1.819,0.037,2.471
		c1.53,2.904,0.598,6.299,1.964,9.188c0.924,1.954,1.761,4.01,3.033,5.725c2.444,3.295,4.587,6.722,8.134,9.278
		c4.883,3.52,10.006,6.259,15.637,8.197c0.435,0.149,0.881,0.375,1.207,0.687c0.39,0.369,0.654,0.871,0.976,1.314
		c-0.528,0.191-1.174,0.686-1.569,0.531c-3.156-1.219-6.348-2.4-9.369-3.91c-2.914-1.455-5.832-3.035-8.406-5.007
		c-5.438-4.163-9.181-9.724-11.615-16.073c-1.983-5.175-2.742-10.691-1.88-16.123c0.401-2.529,0.333-5.34,1.801-7.717
		c0.28-0.453,0.04-1.227-0.634-1.969c-0.703,2.072-1.745,4.099-2.037,6.229c-0.545,3.973-1.798,7.877-1.307,11.98
		c0.468,3.904,1.74,7.584,3.08,11.227c0.741,2.014,1.829,3.93,2.971,5.757c1.09,1.746,2.32,3.445,3.725,4.946
		c3.065,3.279,6.525,5.979,10.709,7.88c3.782,1.72,7.184,4.265,11.33,5.235c0.436,0.102,0.785,0.567,1.219,0.662
		c4.299,0.929,4.301,0.917,6.975,3.589c-4.172,1.802-7.979-0.485-11.409-1.815c-3.946-1.53-8.153-2.926-11.64-5.71
		c-3.354-2.681-6.565-5.481-9.203-8.854c-2.496-3.193-5.143-6.315-5.81-10.597c-0.202-1.296-1.789-2.44-1.827-3.684
		c-0.104-3.403-1.553-6.587-1.175-10.085c0.349-3.237,0.074-6.541-0.196-9.809c-1.542,5.028-2.441,10.19-1.633,15.293
		c1.12,7.07,3.225,13.857,7.508,19.866c5.985,8.397,16.78,15.743,26.644,18.776c3.604,1.107,7.215,2.576,11.24,1.971
		c0.764,0.858,1.532,1.725,2.37,2.665c-0.086,0.068-0.288,0.373-0.514,0.393c-6.008,0.488-11.597-1.585-17.08-3.411
		c-4.35-1.447-12.635-6.155-16.742-10.361c-4.864-4.98-9.116-10.292-12.234-16.477c-1.257-2.494-1.759-5.277-2.452-8.004
		c-1.079-4.241-0.785-8.418-0.796-12.621c-0.016-6.242,2.653-11.801,5.016-17.395c0.313-0.738,1.345-1.252,2.142-1.693
		c2.158-1.195,4.368-2.299,6.645-3.482c-0.664-0.305-0.31-1.699-2.205-0.938c-2.128,0.856-4.217,1.892-6.385,2.69
		c-2.289,0.843-4.484,1.938-7.761,3.382c3.043-5.576,5.557-10.188,8.105-14.855c3.788,2.701,7.362,5.252,11.354,8.1
		c-0.063,0.303-0.099,1.251-0.457,2.055c-1.863,4.168-3.443,8.383-3.541,13.045c-0.025,1.201-0.876,2.385-0.91,3.586
		c-0.146,5.289,0.96,10.395,3.255,15.121c2.102,4.325,5.619,7.516,9.516,10.287c3.33,2.37,7.133,3.667,10.931,4.985
		c1.782,0.619,2.919,1.44,4.53,3.573c-0.891,0.17-1.644,0.548-2.266,0.394c-4.988-1.235-12.967-5.125-16.969-8.462
		c-5.146-4.291-8.098-10.167-9.859-16.366c-1.007-3.546-0.167-7.61-0.189-11.442c-0.009-1.562-0.096-3.121-0.148-4.684
		C103.654,347.02,103.464,347.033,103.274,347.046z"/>
	<path fill="#FFFFFF" d="M95.845,237.972c-2.069-1.902-4.051-3.725-6.128-5.636c1.801-3.645,5.649-4.014,8.499-6.186
		c-0.35-0.495-0.598-1.265-1.071-1.445c-3.241-1.24-4.733-4.184-6.569-6.729c-0.729-1.01-1.446-2.054,0.855-3.224
		c2.384-1.211,4.326-3.172,7.717-2.628c-2.355-4.434-5.438-7.999-6.256-12.598c3.135-1.531,6.313-1.647,9.539-1.538
		c1.828,0.062,3.679,0.164,5.479-0.067c0.686-0.088,1.841-1.511,1.8-1.563c-2.104-2.715,1.14-5.09,0.401-7.836
		c-0.663-2.467,1.42-4.677,1.926-7.118c0.348-1.679,3.309-5.079,5.47-6.605c1.665,8.496,5.929,15.818,9.587,23.478
		c-6.716,4.181-11.715,9.72-14.09,17.353c-2.445,7.864-0.178,15.328,2.182,22.679c-9.713,6.069-14.236,10.227-22.532,21.539
		C91.294,253.837,91.428,247.721,95.845,237.972z M116.674,181.113c-3.664,1.98-3.311,5.891-4.225,9.062
		c-1.006,3.48-0.789,7.165,0.186,10.896c-2.57-0.363-5.086-0.663-7.58-1.086c-2.825-0.479-5.172,1.582-8.332,0.881
		c0.382,1.436,0.477,2.395,0.881,3.197c1.21,2.405,2.685,4.632,4.518,6.646c0.639,0.702,0.74,1.893,1.092,2.876
		c-3.474,1.107-6.786,1.456-9.078,3.772c2.639,3.878,6.179,6.58,9.979,9.178c-3.59,2.089-7.635,2.714-9.989,5.984
		c1.328,2.607,3.699,3.672,5.761,5.097c-3.345,2.89-3.383,7.257-4.828,10.986c-0.262,0.675,0.234,1.644,0.485,3.071
		c4.072-3.789,7.635-7.105,11.464-10.668c-1.507,0.336-2.679,0.598-3.852,0.858c0.752-1.16,1.782-1.587,2.631-2.247
		c0.265-0.205,0.042-1.038,0.042-1.431c-1.078,0.32-1.864,0.554-2.65,0.788c-0.08-0.199-0.159-0.398-0.238-0.597
		c0.999-0.649,1.998-1.298,3.017-1.959c-0.638-0.313-1.265-0.619-1.887-0.924c0.34-0.431,0.601-0.761,1.019-1.29
		c-1.813-0.175-3.368-0.324-5.688-0.548c2.482-0.733,4.104-1.213,5.726-1.692c-0.03-0.227-0.06-0.453-0.09-0.68
		c-1.008-0.199-2.016-0.398-3.023-0.598c0.006-0.145,0.012-0.288,0.018-0.433c1.303-0.181,2.606-0.361,4.151-0.575
		c-0.419-0.42-0.622-0.526-0.639-0.657c-0.042-0.336-0.01-0.98,0.007-0.981c1.949-0.059,1.81-0.845,0.912-2.171
		c-0.23-0.339,0.194-1.122,0.32-1.71c-1.022-0.152-1.894-0.282-2.699-0.403c0.81-0.772,1.468-1.4,2.508-2.393
		c-1.96-0.306-3.227-0.503-4.494-0.7c0.028-0.232,0.056-0.465,0.084-0.697c1.235,0,2.47,0,3.705,0
		c0.042-0.253,0.084-0.506,0.127-0.759c-2.01-0.574-4.019-1.147-6.89-1.967c3.183-0.187,5.525-0.322,8.502-0.497
		c-1.305-0.636-1.934-0.943-2.947-1.438c0.869-0.15,1.327-0.215,1.778-0.312c0.545-0.117,1.084-0.262,1.794-0.435
		c-2.416-2.981-2.416-2.981-0.15-4.077c-1.418-1.008-2.764-1.965-4.108-2.923c0.072-0.203,0.145-0.407,0.218-0.61
		c1.547,0.326,3.096,0.653,4.643,0.979c-0.574-0.992-1.321-1.452-2.056-1.934c-0.698-0.458-1.605-0.778-1.6-2.132
		c2.038,0.699,3.833,1.315,6.388,2.192c-1.07-1.693-1.743-2.756-2.546-4.024c1.748,0.408,3.192,0.746,4.812,1.124
		c0.131-1.659,0.23-2.905,0.348-4.372c0.628,0.559,0.98,0.872,1.566,1.394c0.178-1.498,0.332-2.818,0.549-4.65
		c0.414,0.834,0.559,1.107,0.688,1.388c0.156,0.339,0.299,0.684,0.563,1.293c1.371-2.657-1.892-4.8-0.082-7.211
		c0.683,1.357,1.346,2.677,2.045,4.069c0.349-0.728,0.656-1.378,0.93-1.947c0.83,0.619,1.566,1.169,2.307,1.718
		C120.818,189.995,118.477,185.65,116.674,181.113z"/>
	<path fill="#FFFFFF" d="M91.888,384.646c4.959,5.224,9.478,9.926,13.927,14.691c2.107,2.258,4.525,4.072,7.146,5.673
		c2.295,1.402,2.178,1.425,1.471,4.091c-0.6,2.27-0.967,4.6-1.43,6.904c-0.341,1.691-0.988,3.395-0.949,5.079
		c0.229,9.658,4.102,17.44,12.233,22.93c0.804,0.543,1.675,1.185,2.127,1.995c0.41,0.736,0.733,2.109,0.339,2.618
		c-4.881,6.304-6.729,13.875-9.123,21.223c-0.027,0.087-0.279,0.102-0.75,0.256c-5.303-6.594-7.824-14.079-6.689-23.106
		c-2.836,0-5.454,0.13-8.051-0.037c-2.537-0.163-5.081-0.511-7.56-1.058c-0.53-0.116-2.489-1.001-0.645-2.338
		c0.432-3.45,2.085-6.24,4.574-8.605c0.311-0.296,0.411-0.813,0.712-1.447c-3.474-0.941-6.671-2.15-8.915-4.694
		c1.116-4.965,4.899-7.592,9.275-10.431c-4.369-0.385-6.743-3.185-10.262-5.059c1.986-2.043,3.298-4.406,5.223-5.122
		c2.542-0.946,1.409-2.021,0.911-3.23c-1.065-2.589-1.806-5.265-2.625-7.924C91.568,392.969,92.399,389.074,91.888,384.646z
		 M111.216,439.708c-2.017,0.432-3.556,0.697-5.2-0.134c1.052-0.704,2.018-1.35,2.98-1.993c-0.084-0.214-0.168-0.429-0.252-0.644
		c-1.543,0.32-3.085,0.643-4.627,0.964c0.724-1.119,1.742-1.5,2.555-2.142c0.585-0.461,1.313-1.344,1.213-1.9
		c-0.104-0.585-1.119-1.008-1.754-1.515c2.046-0.905,2.161-1.298,0.762-2.354c-0.254-0.191-0.406-0.517-0.604-0.778
		c0.726-0.465,0.604-0.796,0.05-1.444c-0.844-0.984-1.156-0.105-1.828,0.128c-1.255,0.438-1.806-0.253-1.329-1.61
		c0.895-0.219,1.809-0.442,2.724-0.666c-0.034-0.232-0.068-0.465-0.104-0.698c-1.245,0-2.491,0-4.63,0
		c2.175-1.088,3.493-1.748,4.891-2.447c-0.739-0.358-1.374-0.666-2.46-1.192c1.381-0.207,2.303-0.347,3.473-0.521
		c-1.535-1.192-1.169-2.36-0.188-3.48c-0.751-0.26-1.332-0.459-1.953-0.674c0.397-0.438,0.715-0.787,1.223-1.348
		c-1.488-0.188-2.798-0.355-4.609-0.587c1.814-0.876,3.103-1.498,4.391-2.119c-0.051-0.207-0.102-0.415-0.152-0.622
		c-1.907,0-3.813,0-5.72,0c-0.008-0.229-0.016-0.462-0.024-0.691c1.653-0.148,3.307-0.296,5.158-0.462
		c-0.539-0.604-0.854-0.957-1.191-1.337c0.654-0.314,1.298-0.624,3.285-1.578c-1.579-0.557-2.513-0.885-3.768-1.325
		c1.265-0.455,1.842-0.663,2.518-0.906c-0.726-0.778-1.37-1.469-2.04-2.188c0.665-0.32,1.305-0.628,1.972-0.949
		c-3.092-3.46-6.898-5.843-10.702-8.496c0.715,4.596,1.207,9.142,4.519,12.485c-1.394,2.638-5.025,2.685-5.893,5.967
		c3,2.5,6.456,4.377,10.186,6.095c-4.473,2.06-7.865,4.889-9.915,9.437c3.252,1.029,6.011,3.33,10.231,3.121
		c-1.693,2.096-3.167,3.692-4.372,5.473c-1.207,1.783-2.143,3.749-3.128,5.51c0.817,1.865,2.197,1.97,3.766,1.942
		c4.102-0.07,8.206-0.023,12.486-0.023c-0.429,2.828-0.784,5.173-1.14,7.519c2.19,1.757,0.146,4.412,1.383,6.422
		c1.184,1.917,0.873,4.643,3.18,5.947c2.191-4.413,4.385-8.828,6.602-13.29c-1.311-0.194-2.445-0.364-3.574-0.533
		c-0.68,0.918-1.391,1.879-2.101,2.84c0.839-4.392,0.892-5.614-0.161-5.749c-0.259,0.608-0.506,1.189-0.752,1.771
		c-0.22-0.046-0.439-0.092-0.658-0.138c0-1.235,0-2.471,0-3.611c-0.81-0.177-1.264-0.274-1.731-0.378
		c0.299-0.844,0.573-1.62,1.002-2.83c-1.955,0-3.526,0-5.289,0C110.484,440.98,110.85,440.345,111.216,439.708z"/>
	<path fill="#FFFFFF" d="M118.756,307.797c-3.348-7.93-5.543-15.906-4.623-24.47c1.385-0.595,2.532-1.023,4.156-0.441
		c1.621,0.58,3.602,0.067,5.377,0.337c1.508,0.229,2.997,0.781,4.406,1.393c1.557,0.675,2.99,1.623,4.517,2.372
		c1.339,0.657,2.733,1.205,4.485,1.968c-0.373-2.976-0.868-5.77-1.035-8.583c-0.176-2.977-0.039-5.971-0.039-8.799
		c0.922-0.579,1.704-1.085,2.504-1.563c0.123-0.073,0.387-0.083,0.484-0.001c2.377,1.981,5.371,0.307,7.932,1.374
		c3.125,1.302,6.405,2.252,9.465,3.682c1.691,0.79,3.074,2.245,4.58,3.42c0.084,0.066,0.029,0.313,0.034,0.477
		c0.005,0.166,0.044,0.349-0.011,0.495c-0.055,0.143-0.206,0.247-0.539,0.619c-3.473-1.25-6.695-3.382-10.342-4.576
		c-3.564-1.167-7.193-1.705-11.107-2.659c0,3.858-0.115,7.328,0.034,10.787c0.134,3.123,0.558,6.234,0.913,9.98
		c-7.031-4.258-13.963-6.84-21.581-7.685c-1.632,8.301,1.325,15.745,3.879,23.391c-6.308,2.992-11.366,7.219-15.147,13.125
		c2.606,4.664,6.49,8.028,11.188,10.563c4.432,2.392,4.571,2.483,2.382,6.683c-0.604,1.155-0.215,2.32-0.727,3.196
		c-1.23,2.104-1.263,4.515-1.801,6.736c-0.609,2.51-0.142,5.28-0.142,8.268c8.493,0.793,15.513-2.925,22.729-7.229
		c-0.291,1.467-0.487,2.577-0.735,3.678c-0.31,1.366-0.784,2.708-0.959,4.089c-0.165,1.313-0.035,2.661-0.035,3.993
		c0,1.5,0,2.999,0,4.498c0,1.294,0,2.588,0,3.972c8.421,0.93,14.866-3.521,21.872-6.801c-0.161,1.193,1.213,2.8-1.25,2.913
		c-3.93,3.883-9.29,4.979-14.165,6.804c-2.629,0.982-5.927,0.176-9.345,0.176c-0.036-1.877-0.092-3.806-0.108-5.732
		c-0.019-2.166-0.159-4.346,0.044-6.492c0.171-1.813,0.758-3.583,1.225-5.659c-3.455-0.049-4.955,2.718-7.397,3.515
		c-2.353,0.768-4.7,1.687-7.124,2.063c-2.734,0.423-5.553,0.313-8.75,0.454c0-1.974-0.038-3.759,0.011-5.542
		c0.05-1.794-0.413-3.975,0.435-5.277c1.051-1.613-0.498-3.822,1.556-4.891c-0.174-2.458,0.875-4.561,1.771-6.762
		c0.929-2.282,0.189-3.25-2.35-4.764c-4.555-2.715-8.779-5.787-11.61-10.484c-0.765-1.271-1.152-2.076-0.307-3.472
		c2.228-3.679,5.175-6.594,8.738-8.931C114.471,310.542,116.719,309.111,118.756,307.797z"/>
	<path fill="#FFFFFF" d="M177.783,338.245c-2.141,4.562-5.385,8.521-6.542,13.526c2.252-2.108,3.252-5.032,5.003-7.433
		c1.889-2.587,4.158-4.896,7.076-8.266c-0.539,1.752-0.59,2.5-0.959,3.022c-2.786,3.945-5.625,7.854-6.971,12.782
		c1.295-1.551,2.681-3.035,3.854-4.671c1.179-1.643,2.051-3.502,3.229-5.143c1.254-1.741,2.711-3.338,4.334-4.847
		c-1.66,5.601-4.903,10.4-7.646,15.522c2.234-1.744,3.997-3.807,5.796-5.949c1.758-2.095,2.457-4.932,4.834-6.525
		c-3.117,7.702-7.522,14.515-14.209,20.568c1.16-0.145,1.967,0.006,2.344-0.328c5.843-5.188,10.431-11.454,14.8-17.854
		c1.309-1.918,1.774-4.408,2.703-6.836c1.657,2.61-0.794,4.521-0.464,6.713c-4.338,7.796-8.78,15.363-16.442,20.689
		c-3.502,2.437-6.918,5.201-10.176,8.038c-1.858,1.618-3.207,3.822-5.318,6.415C162.585,361.915,166.32,348.617,177.783,338.245z"/>
	<path fill="#FFFFFF" d="M196.098,309.745c-1.775-3.805-2.931-6.854-4.55-9.632c-4.083-7.005-10.225-12.247-15.878-17.894
		c-0.249-0.249-0.867-0.129-2.236-0.287c2.321,2.321,4.06,4.14,5.883,5.867c4.211,3.984,7.166,8.828,9.662,13.987
		c0.107,0.223-0.107,0.602-0.25,1.269c-3.75-4.868-7.364-9.557-10.979-14.246c-0.221,0.096-0.439,0.192-0.66,0.288
		c0.155,0.652,0.107,1.485,0.499,1.93c3.771,4.278,6.09,9.38,8.024,14.85c-1.295-1.549-2.618-3.072-3.872-4.652
		c-1.283-1.618-2.554-3.253-3.726-4.952c-1.188-1.727-2.248-3.543-3.891-6.157c-0.086,4.005,2.462,5.603,3.484,7.932
		c0.979,2.23,2.317,4.304,3.238,6.696c-1.521-0.818-3.299-1.896-3.674-3.271c-0.549-2.008-2.449-2.573-3.189-4.194
		c-0.678-1.48-1.49-2.897-2.625-4.149c0.889,4.843,4.354,8.422,6.524,13.166c-3.944-1.54-5.948-4.681-7.53-7.612
		c-5.08-9.41-8.32-19.396-7.138-30.967c1.08,1.081,1.97,1.886,2.757,2.78c0.731,0.834,1.256,1.866,2.049,2.628
		c1.348,1.295,2.683,2.719,4.289,3.609c5.815,3.227,10.104,8.166,14.657,12.792c2.945,2.995,7.591,11.574,8.82,15.808
		C196.094,306.383,195.963,307.559,196.098,309.745z"/>
	<path fill="#FFFFFF" d="M139.354,107.857c-1.4,2.706-2.563,4.717-3.511,6.824c-3.145,7.012-4.319,9.689-6.034,18.008
		c-0.918,4.45-1.039,8.821-0.621,13.086c0.405,4.128,1.34,8.307,2.334,12.429c1.424,5.902,3.433,11.612,5.648,17.157
		c2.4,6.005,6.118,11.476,9.604,16.999c4.207,6.665,9.106,12.825,13.492,19.354c1.336,1.992,3.014,3.758,4.561,5.605
		c3.396,4.059,6.811,8.103,10.24,12.181c-1.428,0.953-2.431,0.615-3.559-0.444c-4.388-4.12-7.73-9.11-11.443-13.772
		c-4.318-5.426-8.4-11.081-12.107-16.94c-4.148-6.558-8.762-12.877-11.924-20.009c-3.008-6.78-5.744-13.652-7.111-21.034
		c-0.719-3.881-1.795-7.659-2.039-11.66c-0.123-1.989-1.141-3.953-0.887-6.083c0.684-5.761,1.881-11.401,4.012-16.812
		c1.645-4.171,3.494-8.251,6.004-11.987C136.732,109.688,137.518,108.605,139.354,107.857z"/>
	<path fill="#FFFFFF" d="M187.751,318.117c-2.919,0-5.837,0-8.755,0c3.214,1.595,7.063-0.287,9.922,2.475
		c-2.934,0.492-5.874,0.987-8.814,1.481c-0.008,0.204-0.014,0.409-0.021,0.614c3.638,0.567,7.274,1.137,10.912,1.705
		c-4.05,0.441-8.065,0.832-11.94,2.543c2.918,0,5.836,0,8.754,0c0.021,0.213,0.043,0.426,0.063,0.639
		c-2.606,0.535-5.215,1.07-8.951,1.84c4.047,1.052,7.146,0.203,10.091,1.076c-2.996,0.365-5.712,1.832-8.835,1.546
		c-6.405-0.587-11.805-3.185-16.306-7.695c-1.28-1.282-1.191-2.35,0.042-3.75c3.114-3.533,6.91-6.352,11.448-7.271
		c3.633-0.736,7.541-0.262,11.314-0.08c1.439,0.069,2.846,0.817,4.26,1.704c-3.582,0-7.166,0-10.75,0
		c-0.02,0.211-0.041,0.422-0.063,0.634c2.611,0.535,5.225,1.069,7.836,1.604C187.891,317.493,187.82,317.806,187.751,318.117z"/>
	<path fill="#FFFFFF" d="M168,236.08c6.115,0,11.887,0,17.719,0c1.161,1.711,2.305,3.396,3.709,5.465
		c-2.674,0.878-5.104,0.339-7.457,0.433c-2.486,0.1-4.981,0.022-7.806,0.022c0,7.216,0,14.443,0,21.783
		c-0.572-0.085-0.81-0.098-1.035-0.157c-4.556-1.201-5.491-4.296-5.224-8.671C168.279,248.829,168,242.663,168,236.08z"/>
	<path fill="#FFFFFF" d="M173.98,380.129c0,8.297,0,15.406,0,22.856c5.051,0,9.957,0,15.016,0c-0.898,1.818-1.627,3.298-2.424,4.911
		c-5.975,0-12.084,0-18.383,0c0-7.779,0-15.547,0-23.849C169.613,383.086,171.414,381.866,173.98,380.129z"/>
	<path fill="#FFFFFF" d="M152.127,110c2.133,0.944,2.52,2.967,3.404,4.858c1.003,2.146,0.117,3.661-0.537,5.39
		c-2.023,5.348-3.582,7.582-7.805,9.112c-2.621,0.948-4.521,0.825-6.447-1.188c-0.479-0.502-0.86-1.537-0.684-2.153
		c1.022-3.573,2.096-7.149,4.523-10.108C146.322,113.792,149.221,111.496,152.127,110z"/>
	<path fill="#FFFFFF" d="M155.965,531.535c-1.104,1.104-2.158,2.158-3.299,3.299c-4.492-1.979-7.764-5.26-9.963-9.643
		c-1.219-2.427-2.002-4.955-1.719-7.738c0.154-1.523,0.963-2.271,2.412-2.453c5.033-0.629,7.977,2.297,10.639,6.002
		C156.404,524.299,156.014,527.934,155.965,531.535z"/>
	<path fill="#FFFFFF" d="M184.045,397.159c10.307-17.783,19.658-35.435,24.955-55.099c0,0.939,0.227,1.948-0.038,2.807
		c-1.286,4.18-1.493,8.677-3.155,12.676c-1.6,3.846-2.812,7.828-4.326,11.693c-1.59,4.053-3.631,7.832-5.518,11.703
		c-1.828,3.75-3.977,7.346-5.957,11.023c-0.818,1.521-1.26,3.346-2.828,4.291C186.342,396.76,185.243,396.832,184.045,397.159z"/>
	<path fill="#FFFFFF" d="M180.136,255.184c0-1.062,0-2.513,0-4.834c2.935,3.802,5.823,6.758,7.775,10.239
		c4.001,7.134,8.476,14.039,11.69,21.582c2.045,4.803,3.692,9.782,5.34,14.742c0.39,1.169,0.059,2.578-0.238,3.955
		C199.557,284.045,190.777,269.285,180.136,255.184z"/>
	<path fill="#FFFFFF" d="M205,344.25c0.122,3.773-1.413,7.236-2.536,10.73c-2.079,6.469-4.877,12.642-8.409,18.461
		c-3.572,5.879-6.785,11.992-11.256,17.293c-0.799,0.947-1.355,2.098-2.088,3.252c-1.176-4.051-1.197-4.565,2.174-8.312
		c4.361-4.843,6.649-11.059,10.895-15.954c0.035-3.039,2.753-4.783,3.589-7.498c0.854-2.775,2.045-5.466,3.599-7.986
		c1.458-2.365,1.424-5.354,2.967-7.756c0.356-0.556,0.053-1.535,0.053-2.318C204.323,344.191,204.662,344.221,205,344.25z"/>
	<path fill="#FFFFFF" d="M207.586,299.556c-5.246-19.14-13.719-35.922-23.545-52.202c1.994,0.978,3.746,1.642,5.105,3.943
		c3.713,6.283,6.883,12.808,10.026,19.366c3.42,7.135,6.546,14.333,7.961,22.228C207.498,294.917,208.245,296.785,207.586,299.556z"
		/>
	<path fill="#FFFFFF" d="M201.297,343.129c-2.877,15.074-10.105,27.915-20.805,38.953c-1.006-2.125-0.622-3.783,1.127-5.238
		c1.146-0.951,2.146-2.08,3.186-3.156c1.107-1.148,2.449-2.01,2.322-4.082c-0.061-1.004,1.205-2.105,1.911-3.136
		c2.219-3.239,4.717-6.319,6.612-9.737c1.776-3.202,2.936-6.75,4.344-10.155C200.463,345.441,200.865,344.279,201.297,343.129z"/>
	<path fill="#FFFFFF" d="M186.298,274.381c0.292-0.531,0.587-1.07,0.954-1.738c-1.793-1.337-2.916-3.046-4.96-4.01
		c-1.972-0.93-2.983-2.949-1.95-5.664c5.434,4.855,9.672,10.425,12.949,16.795c3.146,6.11,6.559,12.097,7.271,19.14
		c-1.975-4.254-3.65-8.682-6.004-12.715C192.125,282.021,189.034,278.238,186.298,274.381z"/>
	<path fill="#FFFFFF" d="M192.678,247.758c0.774,0.647,1.859,1.139,2.274,1.967c4.498,8.956,9.057,17.957,11.692,27.628
		c1.389,5.097,3.888,10.084,3.344,15.632c-0.028,0.295-0.217,0.574-0.512,1.313c-3.429-16.457-9.287-31.587-17.816-45.678
		C192,248.332,192.339,248.045,192.678,247.758z"/>
	<path fill="#FFFFFF" d="M178.254,371.206c2.004-3.966,5.063-5.293,6.947-7.763c2.02-2.646,4.191-5.12,6.074-7.922
		c1.758-2.612,2.973-5.476,4.635-8.105c1.609-2.545,2.479-5.557,3.689-8.4c1.373,2.461-0.218,4.697-0.974,6.717
		c-2.625,7.017-6.565,13.367-11.183,19.252c-1.627,2.074-3.641,3.873-5.641,5.608C181.234,371.088,180.093,370.921,178.254,371.206z
		"/>
	<path fill="#FFFFFF" d="M199.551,306.773c-1.629-7.18-5.23-12.574-8.604-18.03c-3.404-5.507-7.357-10.641-13.045-14.569
		c1.358,0,2.473,0,3.664,0c7.191,6.227,12.774,13.915,16.287,22.886C198.904,299.741,200.839,302.647,199.551,306.773z"/>
	<path fill="#FFFFFF" d="M208.689,356.094c-0.072,1.846,1.225,3.816-0.689,5.422c-0.539,5.795-3.094,11.021-5.146,16.291
		c-2.557,6.558-5.121,13.221-9.199,19.263c-0.561-0.517-1.008-0.93-1.483-1.368c1.94-4.303,4.552-8.242,6.371-12.624
		c1.883-4.531,3.959-8.961,5.662-13.593C205.828,365.064,207.021,360.527,208.689,356.094z"/>
	<path fill="#FFFFFF" d="M130.295,424.994c2.064-3.034,3.96-5.917,5.966-8.721c0.939-1.313,2.201-1.933,4.042-0.592
		c-1.348,2.348-2.701,4.709-4.162,7.254c2.928,0.004,5.836,0.034,7.825,2.604c-0.94,0.652-1.222,1.887-3.19,0.966
		C137.521,424.984,133.773,424.634,130.295,424.994z"/>
	<path fill="#FFFFFF" d="M129.953,219.957c3.932,0.313,7.404-0.558,10.818-1.904c1.285-0.508,2.442,0.296,3.283,1.697
		c-2.705,0.916-5.33,1.807-7.953,2.696c1.849,2.135,3.698,4.308,2.551,7.594c-3.043-0.092-2.52-3.652-4.625-4.512
		C133.791,223.026,131.014,222.378,129.953,219.957z"/>
	<path fill="#FFFFFF" d="M139.838,383.339c2.973,0.246,5.469,0.581,7.971,0.634c4.629,0.098,9.26,0.027,14.534,0.027
		c-0.567,0.946-0.763,1.705-1.228,1.951c-0.939,0.497-2.01,0.925-3.057,1.014c-5.502,0.467-10.884-0.261-16.127-1.979
		c-0.432-0.143-0.811-0.469-1.185-0.75C140.484,384.038,140.273,383.773,139.838,383.339z"/>
	<path fill="#FFFFFF" d="M146.093,221.539c2.366,2.546,4.575,4.398,6.88,7.249c-3.91,0-6.783,0-9.873,0
		c-0.705-1.216-1.473-2.54-2.158-3.721C141.693,222.158,144.766,223.681,146.093,221.539z"/>
	<path fill="#FFFFFF" d="M194.18,220.649c-1.834-1.929-2.799-3.039-3.363-4.969c-1.317-4.517-3.336-8.9-5.871-12.914
		c-1.666-2.639-3.864-4.94-6.454-8.181c1.45,0.595,2.213,0.703,2.682,1.132c2.947,2.696,5.28,5.808,6.871,9.542
		c1.736,4.079,3.838,8.001,5.701,12.029C194.055,217.962,193.96,218.822,194.18,220.649z"/>
	<path fill="#FFFFFF" d="M153.5,416c-2.379,2.38-4.127,4.127-5.873,5.873c-2.41,0.402-4.686,0.201-6.756-1.595
		c0.363-0.786,0.746-1.613,1.129-2.44c0.591-1.275,1.467-1.937,2.996-1.869C147.59,416.083,150.193,416,153.5,416z"/>
	<path fill="#FFFFFF" d="M162.193,390.643c-7.508,2.703-14.787,3.582-22.041-0.643c1.109,0,2.682-0.465,3.244,0.091
		c1.475,1.456,3.162,1.04,4.625,0.828c3.082-0.448,6.229-0.619,9.224-1.644C159.15,388.625,159.867,388.875,162.193,390.643z"/>
	<path fill="#FFFFFF" d="M187.91,198.511c2.871,2.589,5.119,5.601,6.152,9.435c0.711,2.638,2.053,5.102,3.035,7.673
		c0.637,1.668,1.187,3.376,1.641,5.102c0.063,0.242-0.646,0.688-1.34,1.382c-0.498-0.929-1.316-1.765-1.334-2.616
		c-0.072-3.542-1.724-6.563-2.814-9.783c-1.199-3.535-3.176-6.643-4.918-9.886C188.119,199.42,188.048,198.948,187.91,198.511z"/>
	<path fill="#FFFFFF" d="M197.238,421.515c0.979,1.488,1.914,1.766,1.481,3.44c-1.198,4.646-3.448,8.867-4.87,13.419
		c-0.98,3.141-3.38,5.839-5.83,8.446c0.326-1.082,0.336-2.472,1.033-3.192c3.529-3.651,4.268-8.526,5.891-12.985
		C195.941,427.906,196.393,424.973,197.238,421.515z"/>
	<path fill="#FFFFFF" d="M160.794,253.224c0,1.139,0,1.915,0,2.681c-3.244-0.662-6.267-1.526-9.345-1.836
		c-3.088-0.311-6.229-0.068-9.344-0.444C148.256,250.893,154.479,251.962,160.794,253.224z"/>
	<path fill="#FFFFFF" d="M160.824,261.326c-6.648-2.614-13.155-0.881-19.688-0.558c2.703-1.563,5.365-2.914,8.576-2.799
		c3.642,0.131,7.291,0.03,11.111,0.03C160.824,258.924,160.824,259.703,160.824,261.326z"/>
	<path fill="#FFFFFF" d="M183.061,445.658c4.361-6.438,6.306-14.009,10.4-20.538c0.555,4.137-1.777,7.349-3.473,10.744
		C188.189,439.467,187.047,443.508,183.061,445.658z"/>
	<path fill="#FFFFFF" d="M152.635,346.216c2.469-4.384,6.867-6.292,11.008-8.017c3.48-1.45,7.159-3.583,11.732-2.941
		c-3.908,2.59-8.266,2.813-11.91,4.801S156.242,344.158,152.635,346.216z"/>
	<path fill="#FFFFFF" d="M142.122,247.758c6.299-3.281,12.423-1.295,18.716,0.563c0,0.637,0,1.419,0,2.431
		C154.793,248.972,148.621,247.333,142.122,247.758z"/>
	<path fill="#FFFFFF" d="M151.902,298.886c1.215,0.2,2.186,0.158,2.955,0.53c1.528,0.74,3.004,1.628,4.398,2.599
		c4.496,3.129,9.646,4.739,14.764,6.474c-2.603,1.752-5.293,0.288-7.291-0.652c-4.869-2.29-9.898-4.438-14.194-7.82
		C152.346,299.867,152.275,299.567,151.902,298.886z"/>
	<path fill="#FFFFFF" d="M161.266,394.721c-0.666,0.76-1.197,1.913-2.024,2.198c-1.75,0.601-3.656,0.746-5.498,1.082
		c-0.919,0.167-1.834,0.369-2.759,0.506c-0.889,0.131-2.198,0.615-2.606,0.214c-1.183-1.163-2.506-0.43-3.696-0.752
		c-0.959-0.26-1.845-0.799-2.506-1.91c1.442,0.313,2.889,0.898,4.323,0.871c1.685-0.031,3.354-0.604,5.033-0.928
		c1.543-0.297,3.12,0.487,4.715-0.618c1.185-0.821,2.856-0.938,4.312-1.368C160.793,394.25,161.029,394.484,161.266,394.721z"/>
	<path fill="#FFFFFF" d="M178.146,200.313c4.987,4.155,7.875,9.744,10.795,15.502c-2.135,0.685-3.106-1.108-3.537-2.064
		C183.313,209.104,180.58,204.84,178.146,200.313z"/>
	<path fill="#FFFFFF" d="M145.193,403.666c4.424-1.777,9.199-1.78,13.52-3.66c0.938-0.408,1.908-0.744,3.629-1.408
		c-1.267,1.989-1.305,4.022-3.746,3.402C154.42,404.989,149.713,403.697,145.193,403.666z"/>
	<path fill="#FFFFFF" d="M124.607,440.861c0.871-1.631,1.383-3.08,2.295-4.203c3.214-3.958,7.504-7.625,10.563-8.909
		c-1.85,2.06-3.181,3.496-4.458,4.979c-1.247,1.447-2.249,3.183-3.71,4.354C127.864,438.229,128.186,441.371,124.607,440.861z"/>
	<path fill="#FFFFFF" d="M169.92,310.993c-1.563-0.086-3.305,0.245-4.65-0.339c-3.801-1.647-8.117-1.985-11.543-4.488
		c-0.824-0.603-1.332-1.64-1.777-2.728C158.025,305.78,163.531,309.285,169.92,310.993z"/>
	<path fill="#FFFFFF" d="M124.795,204.51c1.973-1.159,2.896,0.287,3.105,1.019c0.692,2.444,3.009,3.354,4.303,5.176
		c1.244,1.754,1.93,4.047,4.486,4.55c0.166,0.033,0.384,0.962,0.209,1.258c-0.178,0.302-0.806,0.358-1.248,0.473
		c-0.104,0.026-0.284-0.121-0.387-0.229C131.592,212.929,127.329,209.603,124.795,204.51z"/>
	<path fill="#FFFFFF" d="M134.971,414.095c-6.271,1.134-11.668-0.953-17.709-3.546c3.928-1.345,6.418,0.865,9.199,1.469
		C129.314,412.637,132.135,413.396,134.971,414.095z"/>
	<path fill="#FFFFFF" d="M133.285,227.785c-3.504,0.106-13.516,2.433-17.035,4.317c-0.107-0.989-0.203-1.848-0.287-2.615
		c2.859-0.756,5.516-1.604,8.232-2.134c2.533-0.493,5.131-0.688,7.711-0.9C132.227,226.427,132.604,227.103,133.285,227.785z"/>
	<path fill="#FFFFFF" d="M116.303,413.197c5.5,1.374,11.002,2.748,17.166,4.288c-2.49,0.878-4.644,0.861-6.414,0.398
		c-3.023-0.79-6.053-1.403-9.117-1.968c-0.842-0.155-1.498-1.325-2.24-2.029C115.898,413.657,116.102,413.428,116.303,413.197z"/>
	<path fill="#FFFFFF" d="M139.639,214.878c-5.457-2.717-7.861-8.179-11.627-12.53c0.495-0.159,0.904-0.428,1.061-0.322
		C133.846,205.273,136.313,210.423,139.639,214.878z"/>
	<path fill="#FFFFFF" d="M145.191,241.325c5.49-0.143,11.104-1.25,16.467,2.945c-1.016,0.368-1.557,0.778-2.006,0.692
		c-3.063-0.59-5.939-2.041-9.149-1.963C149.115,240.937,146.723,242.754,145.191,241.325z"/>
	<path fill="#FFFFFF" d="M151.924,340.361c1.121-0.787,2.275-1.529,3.354-2.37c2.885-2.25,6.676-2.251,9.759-3.991
		c2.358,0.611,4.42-2.166,7.258-0.365c-7.183,1.499-13.683,3.969-19.655,7.789C152.398,341.068,152.162,340.715,151.924,340.361z"/>
	<path fill="#FFFFFF" d="M128.891,442.434c2.269-5.47,6.498-9.382,10.74-13.51c0.186,0.591,0.451,1.018,0.344,1.156
		c-3.373,4.395-6.783,8.762-10.188,13.133C129.488,442.953,129.189,442.693,128.891,442.434z"/>
	<path fill="#FFFFFF" d="M200.561,193.101c3.006,5.155,5.123,10.598,5.625,17.614C203.84,206.6,200.875,197.382,200.561,193.101z"/>
	<path fill="#FFFFFF" d="M114.27,225.578c3.116-0.724,5.351-1.845,8.02-1.661c1.659,0.114,3.367-0.775,5.066-0.838
		c0.877-0.032,1.783,0.758,3.521,1.572c-4.49,0.529-7.975,0.892-11.439,1.378c-1.051,0.146-2.039,0.796-3.086,0.9
		C115.863,226.979,115.299,226.279,114.27,225.578z"/>
	<path fill="#FFFFFF" d="M171.854,338.998c-5.928,3.172-11.53,6.535-16.756,11.17c0-0.868-0.195-1.504,0.028-1.736
		c3.974-4.142,9.051-6.608,14.095-9.097C169.971,338.965,170.969,339.1,171.854,338.998z"/>
	<path fill="#FFFFFF" d="M117.002,233.953c5.514-1.728,10.768-4.556,17.025-3.146c-5.557,1.46-11.112,2.919-16.67,4.379
		C117.24,234.774,117.121,234.364,117.002,233.953z"/>
	<path fill="#FFFFFF" d="M130.096,420.911c-1.129,0.363-2.486,1.319-3.348,0.985c-3.744-1.448-7.747-1.261-11.648-2.224
		c0-0.426,0-0.875,0-1.597C120.309,417.468,124.906,420.516,130.096,420.911z"/>
	<path fill="#FFFFFF" d="M208,185.396c1.436,2.261,2.174,3.853,2.043,5.857c-0.174,2.654-0.191,5.34,0.008,7.99
		c0.137,1.815,0.758,3.595,0.323,5.768c-0.458-0.838-1.237-1.646-1.317-2.519c-0.346-3.692,0.42-7.427-0.959-11.113
		C207.512,189.814,208,187.848,208,185.396z"/>
	<path fill="#FFFFFF" d="M133.281,218.073c-2.842-0.099-3.32-2.542-4.947-3.005c-1.906-0.542-1.752-2.982-3.979-3.467
		c-1.228-0.268-1.989-2.662-3.148-4.374c0.238-0.106,0.811-0.362,1.49-0.666C125.846,209.986,129.357,213.806,133.281,218.073z"/>
	<path fill="#FFFFFF" d="M154.934,294.645c5.463,3.838,10.24,7.692,15.98,9.999c-4.25,0.173-7.299-2.771-10.932-4.161
		C159.084,298.123,155.152,298.515,154.934,294.645z"/>
	<path fill="#FFFFFF" d="M133.07,427.574c-3.646,3.476-7.283,6.956-10.955,10.4c-0.117,0.109-0.57-0.142-0.865-0.225
		c2.766-4.624,6.516-8.207,11.094-10.918C132.586,427.08,132.828,427.327,133.07,427.574z"/>
	<path fill="#FFFFFF" d="M188.879,428.354c-1.842,4.625-3.77,9.128-7.945,12.337c0.355-0.912,0.569-1.916,1.092-2.721
		C184.175,434.658,185.035,430.47,188.879,428.354z"/>
	<path fill="#FFFFFF" d="M113.325,421.938c4.704,0.521,8.567,0.946,12.573,1.39c-0.604,1.232-1.471,1.766-2.893,1.698
		c-2.845-0.137-5.77,0.405-8.43-1.053C114.243,423.79,114.107,423.243,113.325,421.938z"/>
	<path fill="#FFFFFF" d="M201.725,450.864c-0.398-5.688,2.431-10.574,3.807-15.847c0.021-0.08,0.617-0.011,1.449-0.011
		C205.197,440.387,203.461,445.626,201.725,450.864z"/>
	<path fill="#FFFFFF" d="M210,458.12c-1.715-0.874-2.637-2.248-1.904-3.305c1.291-1.864,1.055-3.803,0.831-5.642
		c-0.384-3.175,1.253-5.937,1.241-9.352c0.684,2.063,1.389,5.091,0.752,6.128c-1.129,1.842-0.879,3.724-0.912,5.632
		C209.973,453.699,210,455.817,210,458.12z"/>
	<path fill="#FFFFFF" d="M156.994,324c-2.701,1.08-5.473,0.684-8.139,1.081c-2.521,0.377-4.938,1.429-8.431,2.499
		c0.782-1.489,0.937-2.232,1.386-2.535c0.738-0.498,1.664-0.979,2.521-1C148.551,323.945,152.773,324,156.994,324z"/>
	<path fill="#FFFFFF" d="M140.672,320.046c0.432-1.017,0.52-1.802,0.896-1.981c0.539-0.255,1.418-0.302,1.924-0.023
		c2.24,1.229,5.139,0.094,6.891,1.167c2.252,1.38,4.529-0.094,7.004,1.452c-3.087,0.611-5.842,0.672-8.356,0.211
		C146.414,320.393,143.818,319.868,140.672,320.046z"/>
	<path fill="#FFFFFF" d="M204.205,431.361c-0.461,2.104-0.393,4.56-1.502,6.232c-1.732,2.614-1.473,6.288-4.523,8.15
		c1.985-4.82,3.441-9.799,4.582-14.889C203.242,431.025,203.725,431.193,204.205,431.361z"/>
	<path fill="#FFFFFF" d="M208.289,437.927c0.59,6.106-1.303,11.438-2.551,17.018c-1.004-1.477-0.905-2.659-0.133-4.196
		c0.604-1.199-0.188-3.233,0.552-4.2c1.208-1.578,0.517-3.144,0.868-4.66C207.336,440.541,207.859,439.244,208.289,437.927z"/>
	<path fill="#FFFFFF" d="M163.99,315.646c-7.162,1.04-12.233-2.531-17.827-3.933c2.526-0.825,2.61-0.968,3.653-0.357
		C153.896,313.747,158.531,314.292,163.99,315.646z"/>
	<path fill="#FFFFFF" d="M159.934,317.4c-6.043,1.399-11.475-0.592-16.813-3.089C148.777,315.043,154.145,317.388,159.934,317.4z"/>
	<path fill="#FFFFFF" d="M198.588,198.991c0.732,1.097,1.688,2.107,2.15,3.308c1.203,3.125,2.231,6.319,3.193,9.527
		c0.094,0.315-0.77,0.917-1.171,1.366c-1.657-4.86-3.207-9.401-4.756-13.942C198.2,199.164,198.395,199.077,198.588,198.991z"/>
	<path fill="#FFFFFF" d="M119.348,434.848c-0.394-0.394-0.742-0.742-1.091-1.091c-0.056-0.116-0.187-0.305-0.153-0.339
		c2.688-2.854,5.701-5.214,9.883-5.921C125.168,429.896,122.35,432.293,119.348,434.848z"/>
	<path fill="#FFFFFF" d="M126.484,218.087c-2.881-2.087-5.762-4.175-8.82-6.39c0.79-0.646,1.287-1.052,1.971-1.609
		C121.271,213.247,125.713,213.713,126.484,218.087z"/>
	<path fill="#FFFFFF" d="M124.908,219.882c0,0.908,0,1.355,0,1.961c-3.635,0-7.176,0-11.527,0
		C117.422,218.72,121.271,220.623,124.908,219.882z"/>
	<path fill="#FFFFFF" d="M147.225,333.801c2.246-3.115,5.949-3.111,9.037-4.383c1.939-0.798,4.389-0.354,6.662-0.068
		C157.352,329.689,152.4,332,147.225,333.801z"/>
	<path fill="#FFFFFF" d="M142.162,330.591c5.746-2.975,11.006-4.067,17.688-3.339c-3.492,1.416-6.572-0.145-8.908,1.748
		C148.049,328.132,146.246,331.679,142.162,330.591z"/>
	<path fill="#FFFFFF" d="M161.99,240.071c-4.147-1.268-7.936-2.425-12.102-3.698c2.303-0.76,4.7-0.812,6.524-0.199
		C158.346,236.822,160.977,237.008,161.99,240.071z"/>
	<path fill="#FFFFFF" d="M200.5,217.435c-1.705-4.627-3.24-8.793-4.773-12.959c0.265-0.114,0.527-0.229,0.793-0.343
		c1.047,2.009,2.377,3.927,3.061,6.052C200.26,212.304,201.785,214.414,200.5,217.435z"/>
	<path fill="#FFFFFF" d="M200.258,426.624c0.959,1.362,2.385,1.687,1.209,3.59c-1.656,2.681-2.543,5.836-4.209,9.884
		C196.957,434.576,199.996,431.13,200.258,426.624z"/>
	<path fill="#FFFFFF" d="M205.584,189.681c0.535,2.755,1.943,5.001,1.416,7.653c1.986,2.321,0.578,4.963,0.379,7.537
		c-0.459-2.485-1.43-5.01-1.238-7.444C206.342,194.845,203.845,192.621,205.584,189.681z"/>
	<path fill="#FFFFFF" d="M151.184,406.914c3.771,0.801,7.025-0.974,10.377-2.276c0.119,0.313,0.24,0.628,0.361,0.941
		c-0.768,0.474-1.645,0.835-2.275,1.448c-0.907,0.882-1.912,0.967-3.084,1.028c-0.869,0.046-1.719,0.892-2.563,0.871
		c-1.017-0.022-2.021-0.587-3.03-0.917C151.039,407.646,151.111,407.28,151.184,406.914z"/>
	<path fill="#FFFFFF" d="M175.813,441.809c0.265-1.649,0.178-2.246,0.433-2.501c1.67-1.676,3.358-3.293,3.836-5.792
		c0.045-0.236,1.204-0.262,2.051-0.424C181.352,436.904,178.602,438.705,175.813,441.809z"/>
	<path fill="#FFFFFF" d="M176.893,205.494c2.666,1.273,4.406,3.255,5.39,6.344c-0.837,0-1.739,0.213-1.888-0.033
		C179.146,209.749,178.041,207.609,176.893,205.494z"/>
	<path fill="#FFFFFF" d="M162.836,332.525c-3.094-0.166-5.441,3.173-9.534,2.108C156.818,333.258,159.516,331.712,162.836,332.525z"
		/>
	<path fill="#FFFFFF" d="M153.355,308.938c2.528,0.847,5.057,1.693,7.677,2.57c-2.421,1.651-4.327-0.832-6.54-0.59
		c-0.454,0.05-1.023-0.949-1.539-1.465C153.088,309.281,153.223,309.109,153.355,308.938z"/>
	<path fill="#FFFFFF" d="M64.796,63.825c0,4.978,0.002,9.428-0.015,13.879c0,0.08-0.221,0.159-0.781,0.538
		c0-4.561,0.04-8.837-0.059-13.11c-0.01-0.446-0.835-0.874-1.908-1.923c0,4.464,0,8.047,0,12.092
		c-2.249-1.531-1.599-3.565-1.936-5.114C59.688,68.303,60,66.262,60,63.751c-1.429,1.012-2.13,1.734-2.032,3.212
		c0.129,1.951,0.032,3.919-0.323,5.887c-1.02-2.741-0.389-5.599-0.738-8.445c-0.895-0.62-1.781-0.885-1.887,0.723
		C54.923,66.609,55,68.102,55,69.571c-1.09,0.626-1.949,0.824-1.992-0.781c-0.039-1.479-0.008-2.959-0.581-4.905
		c-0.211,0.745-0.423,1.491-0.634,2.237c0.506,1.377,0.506,1.377-1.634,1.723c0-6.472,0-12.923,0-19.725
		c6.1-0.128,12.333-0.357,18.57,0.145c0.579,0.047,1.121,0.541,1.463,0.717c-0.901,1.765-3.854-0.211-2.934,3.077
		c1.844,0,3.753,0,5.662,0c0.01,0.242,0.02,0.483,0.03,0.725c-1.856,0.111-3.713,0.223-5.607,0.336
		c-0.55,1.03-0.692,1.859,0.906,1.88c2.339,0.031,4.77-0.324,7.167,1.943c-3.062,0-5.65,0-8.315,0c0,0.805,0,1.256,0,2.059
		c3.272,0,6.524,0,9.794,0c0,0.803,0,1.254,0,2.086c-2.792-0.496-5.497,0.604-8.212-0.751c-0.576-0.287-1.792,0.708-2.809,1.154
		c4.609,1.748,9.779-1.23,14.862,2.335C75.072,63.825,70.286,63.825,64.796,63.825z M60.849,53c-0.988,0-1.789-0.007-2.589,0.001
		c-3.897,0.039-4.558,0.789-4.283,4.514c0.116,1.573,0.979,2.324,2.365,2.455c1.441,0.136,2.905,0.03,4.507,0.03
		C60.849,57.716,60.849,55.614,60.849,53z"/>
	<path fill="#FFFFFF" d="M65.673,592.416c0.581,0.658,0.918,1.395,1.414,1.524c0.892,0.231,2.141-0.271,1.903,1.434
		c-0.075,0.117-0.141,0.268-0.25,0.374c-0.109,0.106-0.259,0.241-0.392,0.241C62.372,596.002,56.394,596,50.208,596
		c0-6.643,0-13.203,0-19.805c2.979-0.874,1.09,2.031,2.148,2.646c0.204-0.12,0.612-0.246,0.615-0.382
		c0.044-1.659,0.029-3.32,0.029-4.988c0.97-0.688,1.861-0.964,1.977,0.642c0.107,1.479,0.023,2.974,0.023,4.446
		c1.061,0.643,1.952,0.859,1.985-0.742c0.055-2.604,0.015-5.211,0.39-7.814c1.017,2.852,0.292,5.809,0.778,8.669
		c2.669-0.247,2.898-0.528,2.206-2.808c-0.836-2.748-0.508-5.332,1.364-8.106c0.575,3.798,0.059,7.342,0.365,10.864
		c1,0.575,1.883,0.775,1.9-0.826c0.037-3.327,0.002-6.655,0.017-9.981c0.004-0.938,0.081-1.876,0.463-2.816
		c0.753,2.394,0.47,4.841,0.52,7.26C65.04,574.729,65,577.202,65,579.84c4.611,0,9.06,0,13.404,0
		c0.815,1.106,1.105,2.084-0.497,2.127C74.09,582.07,70.269,582,66.456,582c-0.665,1.021-0.905,1.939,0.697,1.979
		c2.938,0.074,5.88,0.021,8.82,0.396c-3.172,0.975-6.433,0.355-9.638,0.742c-0.583,1.104-0.623,1.892,0.951,1.886
		c1.997-0.008,3.997-0.065,5.985,0.06c0.337,0.021,0.623,0.855,0.991,1.402c-2.833,1.363-5.788-0.441-8.242,1.202
		c-0.128,0.085,0.038,0.609,0.1,1.278c1.873,0,3.784,0,5.696,0C70.083,592.55,67.94,591.493,65.673,592.416z M60.916,584.173
		c-2.224,0-4.004,0-5.972,0c0.208,2.398-0.215,4.647,0.254,6.654c2.11,0,3.891,0,5.718,0
		C60.916,588.546,60.916,586.438,60.916,584.173z"/>
	<path fill="#FFFFFF" d="M131.896,60c0-0.804,0-1.254,0-2.06c-3,0-5.92,0-9.226,0c2.229-1.897,2.229-1.897,7.009-2.12
		c-1.25-1.503-1.57-1.699-3.31-2.082c0.155-0.893,0.312-1.777,0.606-3.472c-5.888,3.949-8.752,9.509-13.098,14.394
		c-4.127-5.678-7.971-10.969-11.995-16.505c8.084,0,15.869,0,23.898,0c4.022,5.243,8.192,10.677,12.323,16.062
		c-0.195,0.288-0.267,0.438-0.379,0.543c-0.109,0.104-0.263,0.23-0.396,0.23c-6.316,0.011-12.633,0.01-18.953,0.01
		c0.07-1.722,1.104-2.019,2.457-2.01c3.998,0.027,7.999,0.052,11.996-0.048c0.463-0.011,0.904-0.81,2.023-1.884
		c-5.17,0-9.418,0-13.666,0c1.67-1.416,3.535-0.953,5.313-1.039C128.289,59.933,130.084,60,131.896,60z"/>
	<path fill="#FFFFFF" d="M153.842,48c4.066,5.252,8.262,10.669,12.355,15.955c-0.271,0.497-0.326,0.65-0.426,0.764
		c-0.104,0.114-0.252,0.271-0.381,0.271C159.402,65.002,153.414,65,147.439,65c-0.642-1.066-0.854-1.972,0.752-1.985
		c4.813-0.04,9.627-0.015,14.451-0.015c-0.138-1.694-1.121-2.032-2.502-2.016C156.508,61.029,152.875,61,149.35,61
		c-0.148-0.37-0.266-0.519-0.229-0.599c0.064-0.143,0.22-0.345,0.338-0.346c3.787-0.018,7.574-0.015,12-0.015
		c-2.939-3.333-6.268-1.403-9.092-2.158c-0.567-0.955-0.777-1.819,0.828-1.872c1.479-0.049,2.962-0.011,4.548-0.011
		c-1.388-1.802-1.388-1.802-3.437-2.244c0.19-0.882,0.383-1.772,0.67-3.099c-3.834,1.234-4.453,4.774-6.734,6.751
		c-2.167,1.878-3.756,4.424-5.938,7.093c-3.984-5.313-7.799-10.396-11.966-15.952c4.253-1.055,7.989-0.403,11.661-0.521
		C145.829,47.904,149.665,48,153.842,48z"/>
	<path fill="#FFFFFF" d="M195.419,64.889c-7.136,0-13.575,0-20.015,0c-0.006-1.63,1.049-1.903,2.393-1.896
		c3.99,0.02,7.98,0.05,11.969-0.048c0.493-0.012,0.969-0.768,2.2-1.814c-5.291-0.095-9.612-0.173-13.936-0.251
		c0.009-0.293,0.017-0.587,0.024-0.88c3.272,0,6.547,0.051,9.815-0.06c0.448-0.015,0.87-0.83,1.912-1.898c-3.781,0-6.695,0-9.849,0
		c1.713-3.555,4.945-1.084,7.479-2.727c-1.698-0.71-3.063-1.279-4.645-1.94c0.385-0.677,0.754-1.324,1.353-2.375
		c-0.972,0-2.229-0.301-2.445,0.046c-2.86,4.621-7.206,8.073-9.981,12.745c-0.064,0.111-0.268,0.142-0.746,0.377
		c-2.333-2.144-3.961-4.992-5.893-7.594c-1.984-2.671-4.063-5.275-6.062-7.86c0.147-0.257,0.194-0.398,0.289-0.485
		c0.11-0.102,0.266-0.219,0.401-0.22c7.48-0.01,14.961-0.009,23.012-0.009C186.664,53.267,190.841,58.811,195.419,64.889z"/>
	<path fill="#FFFFFF" d="M85.712,64.213c-1.452-1.452-2.668-2.396-3.542-3.592c-2.87-3.927-5.615-7.945-8.82-12.516
		c8.049-0.22,15.469-0.034,23.207-0.127c4.549,5.046,8.791,10.559,12.865,16.634c-2.313-0.48-4.009,0.642-5.915,0.444
		C101.202,64.817,98.853,65,96.522,65c-2.124,0-4.248,0-6.43,0c0-0.783,0-1.234,0-2.031c5.32,0,10.562,0,16.883,0
		c-4.988-3.475-9.799-0.996-13.992-2.54c3.553-0.656,7.153-0.248,10.727-0.498c-0.318-1.555-1.202-2.03-2.641-1.956
		C99.113,58.076,97.147,58,95.101,58c0-0.75,0-1.2,0-2.002c1.948,0,3.855,0,5.763,0c0.062-0.263,0.123-0.525,0.185-0.788
		c-1.335-0.595-2.671-1.189-3.81-1.696c0.25-0.693,0.53-1.467,0.991-2.74c-4.17,0.847-4.567,4.594-6.827,6.498
		C89.223,59.108,87.699,61.722,85.712,64.213z"/>
	<path fill="#FFFFFF" d="M172.91,580.188c6.521,0,12.744,0,18.969,0c-5.213,1.302-10.557,0.392-17.057,1.138
		c2.041,0.873,2.964,1.571,3.92,1.619c2.984,0.15,5.98,0.044,8.974,0.063c0.771,0.006,1.538,0.109,2.308,0.992
		c-3.264,0-6.528-0.052-9.791,0.055c-0.494,0.018-0.967,0.77-1.534,1.254c2.708,1.822,6.256-0.976,8.471,2.685
		c-2.194,0-4.123,0-6.049,0c-0.054,0.263-0.104,0.525-0.158,0.789c1.313,0.595,2.629,1.188,3.912,1.769
		c-0.121,0.141-0.462,0.354-0.502,0.612c-0.086,0.553-0.017,1.131-0.011,1.698c0.449-0.023,1.087,0.136,1.32-0.103
		c1.488-1.511,2.952-3.056,4.305-4.688c2.033-2.458,3.955-5.012,5.967-7.489c0.27-0.33,0.775-0.467,1.136-0.671
		c3.917,5.301,7.754,10.492,11.802,15.969c-3.968,0.259-8.005,0.082-12.029,0.114c-4.146,0.033-8.291,0.008-11.978,0.008
		C180.811,590.621,176.939,585.51,172.91,580.188z"/>
	<path fill="#FFFFFF" d="M65.875,280.376c-5.193,3.872-10.274,7.66-15.4,11.482c-0.008-0.005-0.15-0.042-0.237-0.133
		c-0.104-0.108-0.229-0.263-0.229-0.396c-0.011-7.491-0.01-14.981-0.01-22.997c5.015-3.917,10.29-8.037,15.598-12.183
		c-0.022-0.018,0.119,0.054,0.207,0.166c0.092,0.118,0.188,0.275,0.188,0.416c0.009,6.306,0.008,12.611,0.008,19
		c-0.902-0.433-2.364-0.281-1.383-1.851c0.817-1.308,0.543-2.435-0.588-3.41c1.618-1.058,0.902-2.702,0.925-4.094
		c0.02-1.232,0.576-2.611-0.682-3.736c-0.223-0.198,0.507-1.303,0.507-1.989c0-0.283-0.762-0.568-1.36-0.978
		c-1.227,4.62,0.596,9.121-1.1,13.312c-0.034,0.084-0.603-0.049-1.27-0.114c0-3.529,0-7.108,0-11.303
		c-3.508,2.94-1.043,6.613-2.761,9.92c-0.199-2.511-0.356-4.495-0.549-6.939c-1.001,0.653-1.723,0.982-2.214,1.522
		c-0.165,0.18,0.258,0.896,0.412,1.366c-0.527,0.14-1.399,0.544-1.526,0.378c-1.118-1.461-1.516,0.051-2.395,0.519
		C55.944,273.169,61.603,275.874,65.875,280.376z"/>
	<path fill="#FFFFFF" d="M65.826,332.85c-1.172-1.869-1.407-3.629-0.913-5.617c0.381-1.532,0.383-3.426-0.191-4.859
		c-0.659-1.646,1.053-2.866,0.252-4.267c-0.292-0.512-0.888-0.849-1.965-1.829c0,5.092,0,9.339,0,13.625c-0.801,0-1.252,0-2.053,0
		c0-3.659,0-7.24,0-11.171c-3.719,2.7-0.725,6.542-2.818,9.86c0-2.825,0-5.069,0-7.05c-0.911,0.813-1.801,1.609-2.705,2.417
		c-0.075-0.088,0.221,0.256,1.186,1.375c-1.646-0.575-2.424-0.847-3.298-1.151c-0.304,0.305-0.775,0.775-1.416,1.416
		c4.741,3.894,9.465,7.771,14.192,11.653c-5.386,3.94-10.579,7.74-15.892,11.627c0-7.739,0-15.514,0-23.882
		c4.873-3.734,10.16-7.788,15.623-11.976C65.826,319.718,65.826,326.283,65.826,332.85z"/>
	<path fill="#FFFFFF" d="M65.572,108.775c-0.989-3.347-1.255-5.64-0.685-8.202c0.529-2.38,0.179-4.973,0.052-7.463
		c-0.023-0.446-0.843-0.853-1.917-1.859c0,5.104,0,9.348,0,13.66c-0.799,0-1.25,0-2.05,0c0-3.649,0-7.23,0-11.184
		c-3.696,2.722-0.765,6.543-2.78,9.772c-0.117-2.383-0.21-4.292-0.304-6.201c-2.49,0.317-2.49,0.317-3.232,3.675
		c-0.38-0.313-0.695-0.783-1.024-0.794c-0.539-0.017-1.087,0.267-1.631,0.423c0.142,0.44,0.147,1.107,0.446,1.288
		c3.452,2.086,6.525,4.622,9.417,7.424c1.128,1.093,2.525,1.907,3.96,2.967c-0.724,2.325-3.239,2.673-4.774,4.063
		c-1.605,1.452-3.664,2.391-5.437,3.675c-1.754,1.271-3.399,2.692-5.446,4.33c0-8.29,0-16.069,0-24.183
		c4.804-3.634,9.875-7.469,14.985-11.334C66.234,91.723,66.419,99.569,65.572,108.775z"/>
	<path fill="#FFFFFF" d="M57.955,158.82c0-1.918,0-3.836,0-6.298c-1.146,0.681-1.804,1.016-2.399,1.438
		c-0.931,0.661,0.001,0.977,0.307,1.402c-0.476,0.19-0.991,0.604-1.421,0.53c-1.381-0.238-1.369-0.309-2.509,0.738
		c4.444,3.693,8.874,7.375,13.55,11.262c-4.42,5.181-10.748,7.376-15.285,12.476c0-8.23,0-15.994,0-24.394
		c4.826-3.761,10.084-7.858,15.611-12.165c0,6.865,0,13.425,0,20.295c-0.781-2.35-0.933-4.832-0.835-7.261
		c0.113-2.81,0.026-5.627,0.026-8.421c-1.102-0.618-1.979-0.808-1.991,0.793C62.98,153.022,63,156.829,63,160.646
		c-1.689-0.142-2.042-1.12-2.015-2.5c0.051-2.63,0.015-5.261,0.015-8.261c-1.525,0.838-2.112,1.67-2.028,3.115
		c0.113,1.948,0.028,3.908,0.028,5.862C58.651,158.85,58.303,158.835,57.955,158.82z"/>
	<path fill="#FFFFFF" d="M50.105,376.15c0-8.064,0-15.69,0-23.733c4.271-4.792,10.634-7.601,15.37-12.342
		c0.714,3.788,0.732,15.753-0.475,19.946c0-1.771-0.397-3.664,0.104-5.278c0.582-1.871-1.324-3.261-0.28-5.28
		c0.729-1.412,0.141-3.504,0.141-5.369c-0.728,0-1.178,0-1.798,0c0,4.178,0,8.293,0,12.621c-0.699,0.116-1.267,0.212-2.221,0.372
		c0-3.854,0-7.435,0-11.122c-2.403,0.922-1.893,2.703-1.946,4.268c-0.054,1.596-0.11,3.189-0.861,4.769c0-1.903,0-3.81,0-6.375
		c-1.44,0.72-2.336,1.167-3.295,1.646c0.496,0.558,0.81,0.91,1.656,1.859c-1.436-0.395-2.225-0.609-3.018-0.826
		c-0.423,0.355-1.021,0.858-1.834,1.545c4.889,3.853,9.591,7.558,14.414,11.356C60.732,368.195,55.616,372.025,50.105,376.15z"/>
	<path fill="#FFFFFF" d="M112.824,579.48c4.101,5.65,7.779,10.72,11.453,15.782c-0.528,0.378-0.779,0.713-1.031,0.714
		c-7.635,0.027-15.271,0.022-22.473,0.022c-4.015-5.396-7.8-10.48-11.532-15.496c3.56-0.692,14.538-0.716,18.778,0.345
		c-5.242,0-10.482,0-16.002,0c1.775,2.144,1.772,2.157,2.926,2.154c3.623-0.008,7.247-0.003,10.89,0.334
		c-1.695,1.003-3.56,0.563-5.344,0.646c-1.786,0.08-3.579,0.018-5.458,0.018c0.782,2.461,0.772,2.363,2.299,2.211
		c0.881-0.088,1.802,0.311,2.7,0.287c0.8-0.021,1.6-0.459,2.385-0.42c0.261,0.013,0.478,0.934,0.94,1.922c-2.402,0-4.309,0-6.216,0
		c-0.062,0.263-0.124,0.525-0.186,0.788c1.334,0.596,2.667,1.19,3.961,1.77c-0.952,1.626-0.952,1.626,0.415,3.251
		C105.065,589.152,108.82,584.471,112.824,579.48z"/>
	<path fill="#FFFFFF" d="M52.129,522.222c4.69,3.704,9.325,7.364,14.141,11.168c-5.458,3.939-10.675,7.707-16.062,11.597
		c0-7.825,0-15.59,0-23.781c4.922-3.836,10.184-7.938,15.597-12.155c0,6.622,0,13.185,0,20.896c-0.483-1.807-2.24-1.353-1.193-3.294
		c0.838-1.556,0.347-3.847,0.378-5.812c0.039-2.48,0.009-4.963,0.009-7.423c-1.117-0.614-1.983-0.791-1.993,0.811
		C62.985,518.034,63,521.842,63,525.604c-1.229,0.648-2.007,0.679-2.002-0.894c0.008-3.136,0.002-6.271,0.002-9.446
		c-1.625,0.351-2.1,1.238-2.025,2.676c0.102,1.955,0.025,3.919-0.314,5.906c-1.044-1.794-0.397-3.865-0.841-6.193
		c-0.975,0.55-1.626,0.872-2.229,1.27c-0.916,0.605-0.159,0.986,0.234,1.403c-0.452,0.215-0.949,0.675-1.348,0.602
		C52.885,520.634,52.896,520.572,52.129,522.222z"/>
	<path fill="#FFFFFF" d="M57.944,466.813c0-1.919,0-3.838,0-5.681c-2.655-0.444-2.517,1.788-3.45,2.833
		c-0.348-0.309-0.694-0.615-1.039-0.92c-0.506,0.506-0.977,0.977-1.613,1.613c4.73,3.949,9.444,7.886,14.259,11.907
		c-5.258,3.802-10.478,7.576-15.918,11.512c0-7.978,0-15.748,0-23.872c4.993-3.833,10.273-7.887,15.644-12.011
		c0,6.528,0,13.091,0,19.65c-0.17,0.021-0.341,0.043-0.511,0.064c-0.105-0.66-0.236-1.317-0.312-1.981
		c-0.438-3.831,0.937-7.791-0.847-11.554c-0.154-0.325,0.769-1.056,0.762-1.593c-0.004-0.344-0.798-0.678-1.918-1.539
		c0,4.674,0.043,8.606-0.055,12.536c-0.012,0.486-0.777,0.955-1.841,2.175c0-4.555,0-8.134,0-12.094
		c-1.653,0.854-2.211,1.712-2.131,3.149c0.109,1.949,0.027,3.908,0.027,5.863C58.648,466.854,58.296,466.833,57.944,466.813z"/>
	<path fill="#FFFFFF" d="M50.161,262.98c0-7.934,0-15.713,0-23.688c4.99-3.688,10.168-7.515,15.663-11.574
		c0,6.676,0,12.906,0,19.483c-0.771-0.953-2.621-1.087-0.997-2.527c0.058-3.971,0.178-7.943,0.107-11.912
		c-0.011-0.602-0.91-1.187-1.863-2.343c0,5.219,0,9.795,0,14.566c-1.748-0.652-2.142-1.639-2.094-3.045
		c0.084-2.489,0.023-4.983,0.023-7.476c-0.997-0.679-1.911-0.937-1.977,0.668c-0.092,2.273-0.023,4.554-0.804,6.849
		c-0.138-2.003-0.275-4.005-0.421-6.131c-3.021,1.566-3.021,1.566-1.543,4.112c-1.57-0.346-2.762-0.607-4.561-1.003
		c1.363,3.635,4.796,4.554,6.796,6.821c1.937,2.196,4.785,3.587,7.358,5.421c-0.751,2.414-3.322,2.687-4.798,4.171
		c-1.574,1.583-3.381,2.966-5.219,4.246C54.093,260.83,52.184,261.796,50.161,262.98z"/>
	<path fill="#FFFFFF" d="M65.357,115.679c0.351,0.653,0.624,0.926,0.625,1.198c0.024,5.959,0.019,11.919-0.628,18.283
		c-0.157-0.621-0.314-1.243-0.617-2.443c0.897-3.136,0.044-7.503,0.195-11.814c0.022-0.628-0.874-1.288-1.62-2.311
		c-0.553,2.628-0.243,4.913-0.299,7.164c-0.058,2.307-0.013,4.615-0.013,6.951c-1.627-0.3-2.071-1.184-2.027-2.622
		c0.091-2.957,0.027-5.919,0.027-9.48c-3.455,2.905-1.002,6.567-2.711,9.905c-0.199-2.534-0.355-4.511-0.516-6.554
		c-2.688,0.154-2.742,2.03-3,3.977c-0.542-0.348-0.97-0.788-1.465-0.885c-0.386-0.076-1.068,0.161-1.23,0.466
		c-0.164,0.308,0.001,1.115,0.279,1.284c4.941,3.014,8.897,7.279,14.023,10.715c-5.497,3.915-10.738,7.647-16.167,11.515
		c0-7.864,0-15.632,0-23.626C55.083,123.631,60.194,119.675,65.357,115.679z"/>
	<path fill="#FFFFFF" d="M61,289.678c-3.623,2.792-0.873,6.547-2.754,9.801c-0.167-2.494-0.301-4.506-0.445-6.669
		c-2.477,0.517-2.145,2.687-3.155,4.085c-0.453-0.294-0.884-0.742-1.387-0.846c-0.372-0.076-1.061,0.195-1.198,0.499
		c-0.148,0.325,0.035,1.091,0.326,1.283c3.48,2.306,6.753,4.849,9.759,7.761c1.123,1.088,2.551,1.862,4.099,2.964
		c-5.33,3.911-10.517,7.718-16.029,11.763c0-8.134,0-15.891,0-24.192c4.801-3.545,10.005-7.388,15.267-11.271
		c0.726,4.415,0.702,15.308-0.482,19.13c0-4.263-0.053-8.527,0.029-12.789c0.028-1.426-0.447-2.399-1.994-3.426
		c0,4.573,0,8.813,0,13.134c-0.792,0-1.243,0-2.036,0C61,297.288,61,293.712,61,289.678z"/>
	<path fill="#FFFFFF" d="M133.367,583c-1.068,0.827-0.896,2.171-2.346,1.565c-2.814-1.176-5.779-0.475-8.683-0.348
		c-0.165,0.007-0.295,0.819-0.544,1.563c2.102,0.153,4.028,0.181,5.909,0.487c0.782,0.129,1.47,0.854,2.838,1.706
		c-2.553,0-4.479,0-6.405,0c-0.057,0.269-0.111,0.534-0.168,0.802c1.307,0.596,2.612,1.191,3.891,1.775
		c-1.748,1.313-0.613,2.338,0.408,3.222c3.881-4.687,7.771-9.383,11.646-14.062c4.125,5.562,7.981,10.758,12.014,16.189
		c-7.671,0.222-15.422,0.023-23.721,0.123c-3.888-5.044-7.974-10.345-12.003-15.572c4.275-0.676,15.119-0.633,18.759,0.448
		c-5.239,0-10.479,0-16.096,0c0.846,1.652,1.71,2.165,3.145,2.13C125.625,582.939,129.243,583,133.367,583z"/>
	<path fill="#FFFFFF" d="M66,397.041c0,6.854,0,13.395,0,19.936c-0.333,0.006-0.667,0.01-1,0.014c0-2.938,0-5.876,0-8.814
		c0-2.163,0.057-4.329-0.063-6.484c-0.017-0.313-0.876-0.58-1.856-1.182c0,4.785,0,9.028,0,13.527
		c-1.709-0.721-2.155-1.66-2.106-3.077c0.09-2.613,0.026-5.231,0.026-8.335c-3.515,2.874-1.023,6.587-2.771,10.331
		c-0.147-2.844-0.246-4.742-0.372-7.16c-1.131,0.544-2.026,0.976-3.024,1.454c0.516,0.566,0.834,0.915,1.155,1.268
		c-0.948,1.745-3.076-1.944-3.947,1.299c4.509,3.717,9.183,7.569,13.926,11.479c-5.262,3.885-10.417,7.69-15.776,11.646
		c-0.062-1.194-0.178-2.438-0.183-3.684c-0.021-5.323,0.257-10.667-0.103-15.967c-0.237-3.484,1.299-5.495,3.835-7.305
		C57.756,403.123,61.712,400.177,66,397.041z"/>
	<path fill="#FFFFFF" d="M66.221,449.674c-5.388,3.938-10.51,7.685-16.047,11.73c-0.37-8.301-0.048-16.202-0.206-23.932
		c5.319-3.953,10.41-7.735,15.528-11.539c0.731,4.467,0.689,15.411-0.496,19.016c0-4.277-0.042-8.557,0.024-12.832
		c0.022-1.403-0.26-2.465-1.884-2.989c0,4.168,0,8.289,0,12.313c-1.14,0.771-2.073,1.026-2.115-0.579
		c-0.083-3.151-0.024-6.307-0.024-9.458c-1.745-0.004-1.982,1.058-2.017,2.4c-0.052,2.051,0.285,4.145-0.906,6.163
		c0-1.924,0-3.848,0-5.833c-3.457,0.872-3.482,0.919-1.894,4.028c-1.51-0.497-2.594-0.854-3.95-1.302
		c-0.634,3.051,2.613,2.706,3.603,4.246c1.154,1.796,3.354,2.92,5.104,4.329C62.561,446.744,64.188,448.043,66.221,449.674z"/>
	<path fill="#FFFFFF" d="M65,176.095c-0.788,0-1.238,0-1.858,0c0,4.202,0,8.318,0,12.338c-1.125,0.782-2.07,1.049-2.114-0.555
		c-0.091-3.272-0.027-6.549-0.027-9.956c-2.39,1.011-1.976,2.754-2.006,4.347c-0.03,1.576-0.105,3.151-0.882,4.731
		c0-1.92,0-3.84,0-6.356c-1.152,0.551-1.92,0.713-2.38,1.18c-1.11,1.127-2.696,2.421-4.229,2.919
		c4.99,4.014,9.766,7.855,14.652,11.785c-5.311,3.84-10.532,7.615-15.975,11.551c0-7.984,0-15.757,0-23.958
		c4.839-3.634,9.998-7.508,15.624-11.732c0,6.948,0,13.178,0,19.392c-0.218,0.035-0.363,0.104-0.447,0.061
		c-0.14-0.075-0.343-0.224-0.343-0.342C64.998,186.384,65,181.27,65,176.095z"/>
	<path fill="#FFFFFF" d="M151.919,589.181c1.546,0.366,3.058,0.726,4.622,1.097c-0.172,0.99-0.385,2.223-0.598,3.455
		c0.218,0.107,0.436,0.217,0.654,0.324c3.852-4.62,7.704-9.242,11.897-14.274c3.981,5.228,7.828,10.28,12.019,15.783
		c-1.146,0.195-1.847,0.417-2.547,0.42c-6.133,0.026-12.265,0.011-18.396,0.019c-2.107,0.002-4.24,0.344-4.861-2.676
		c-0.195-0.949-1.623-1.6-2.329-2.508C152.027,590.366,152.035,589.635,151.919,589.181z"/>
	<path fill="#FFFFFF" d="M56.476,488.08c-1.079,2.107-2.408,3.271-0.752,4.971c-0.773-0.281-1.547-0.562-2.402-0.872
		c-0.326,0.325-0.797,0.797-1.346,1.347c4.714,3.924,9.422,7.843,13.967,11.625c-5.308,3.939-10.478,7.777-15.753,11.695
		c0-8.074,0-16.187,0-24.367C51.943,491.25,53.834,489.928,56.476,488.08z"/>
	<path fill="#FFFFFF" d="M56.151,208.313c-0.666,1.972-1.107,3.278-1.572,4.653c-0.362-0.312-0.704-0.604-1.148-0.985
		c-0.38,0.476-0.783,0.978-1.315,1.644c4.548,3.883,9.221,7.872,13.686,11.683c-5.252,3.908-10.371,7.717-15.671,11.661
		c0-8.289,0-16.375,0-24.454C51.952,211.243,53.84,209.925,56.151,208.313z"/>
	<path fill="#FFFFFF" d="M72.496,595.588c4.202-5.548,8.04-10.615,12.078-15.948c3.983,5.271,7.816,10.344,11.701,15.483
		C93.217,596.238,81.678,596.454,72.496,595.588z"/>
	<path fill="#FFFFFF" d="M50.185,573.66c0-8.736,0-16.634,0-25.237c1.919,1.799,3.23,3.464,4.925,4.507
		c2.065,1.271,3.271,3.429,5.618,4.482c1.943,0.873,2.972,3.367,5.674,4.252C61.085,565.598,55.976,569.377,50.185,573.66z"/>
	<path fill="#FFFFFF" d="M50.096,404.712c0-8.845,0-16.625,0-24.989c0.846,0.504,1.441,0.747,1.881,1.156
		c0.316,0.293,0.315,0.952,0.643,1.203c4.095,3.141,8.234,6.223,11.898,9.886c0.263,0.263,0.891,0.159,2.036,0.327
		C60.952,396.521,55.824,400.391,50.096,404.712z"/>
	<path fill="#FFFFFF" d="M50.17,72.045c5.408,4.202,10.655,8.28,15.797,12.277c-5.236,3.929-10.38,7.79-15.797,11.854
		C50.17,87.95,50.17,80.061,50.17,72.045z"/>
	<path fill="#FFFFFF" d="M55.656,208.924c2.893-3.386,6.965-4.936,10.153-8.235c0,7.099,0,13.647,0,20.196
		c-0.208,0.016-0.417,0.031-0.625,0.047c-0.061-1.347-0.39-2.751-0.109-4.021c0.286-1.292-1.571-2.218-0.207-3.783
		c0.545-0.625-1.011-2.915-0.493-3.769c0.804-1.324,0.504-2.516,0.553-3.754c0.009-0.231-0.92-0.498-1.887-0.986
		c0,4.722,0,8.955,0,13.317c-1.757-0.586-2.104-1.609-2.063-3.004c0.076-2.606,0.022-5.217,0.022-8.307
		c-3.515,2.869-1.038,6.567-2.81,10.463c0-3.311,0-5.525,0-7.935C57.247,209.068,56.626,209.012,55.656,208.924z"/>
	<path fill="#FFFFFF" d="M65.906,537.528c0,7.271,0,13.715,0,20.159c-0.196,0.174-0.393,0.346-0.59,0.519
		c0.133-0.834,0.266-1.668,0.398-2.501c-0.473,0.389-0.946,0.777-1.419,1.166c0.235-0.796,0.735-1.62,0.654-2.382
		c-0.216-2.036,0.98-4.319-0.949-6.083c1.122-1.889,1.208-3.928,0.874-6.066c-1.027-0.546-1.867-0.682-1.871,0.912
		C62.994,547.058,63,550.863,63,554.695c-1.631-0.275-2.084-1.16-2.026-2.6c0.096-2.326,0.097-4.663-0.036-6.985
		c-0.025-0.448-0.842-0.854-1.917-1.862c0,3.436,0,6.021,0,8.607c-1.36-1.713-0.834-3.598-1.083-5.51
		c-0.513-0.178-1.093-0.38-1.727-0.601c0.077-0.229,0.082-0.546,0.24-0.674C59.433,542.671,62.432,540.292,65.906,537.528z"/>
	<path fill="#FFFFFF" d="M55.658,488.924c2.829-3.326,6.847-4.908,9.752-7.782c0.768,3.278,0.866,14.318,0.036,20.806
		c-0.259-1.524-0.419-2.073-0.433-2.626c-0.038-1.495,0.001-2.992-0.017-4.487c-0.019-1.48,0.49-3.377-0.232-4.35
		c-1.207-1.627,1.041-2.4,0.335-3.848c-0.433-0.887-0.183-1.966-2.012-1.468c0,4.119,0,8.358,0,12.923
		c-1.669-0.794-2.168-1.686-2.115-3.113c0.098-2.611,0.028-5.23,0.028-8.365c-3.471,2.895-1.085,6.566-2.803,9.372
		c0-2.211,0-4.423,0-6.83C57.249,489.068,56.627,489.012,55.658,488.924z"/>
	<path fill="#FFFFFF" d="M65.832,368.895c0,6.842,0,13.394,0,19.943c-0.171,0.02-0.342,0.039-0.512,0.059
		c-0.106-0.815-0.298-1.631-0.305-2.446c-0.033-3.818,0.054-7.64-0.061-11.454c-0.03-1.021-0.62-2.025-1.333-2.987
		c-0.908,2.374-0.537,4.772-0.606,7.127c-0.067,2.271-0.015,4.544-0.828,6.954c-0.396-0.951-1.068-1.884-1.132-2.857
		c-0.163-2.479-0.002-4.979-0.113-7.463c-0.016-0.351-0.83-0.664-1.756-1.353c-0.137,3.229-0.25,5.901-0.363,8.573
		c-0.239-0.012-0.479-0.021-0.718-0.032c0-1.899,0-3.802,0-5.577c-0.923-0.324-1.501-0.527-2.583-0.906
		C59.084,373.854,62.34,371.46,65.832,368.895z"/>
	<path fill="#FFFFFF" d="M144.588,580c6.213,0,11.824,0,17.436,0c0.615,0,1.229,0,1.845,0c-5.211,1.379-10.533,0.673-16.563,1.208
		c4.691,3.37,9.533,0.71,14.732,2.575c-2.119,0.105-3.258,0.384-4.299,0.172c-2.411-0.49-4.775,1.265-7.158,0.045
		c-0.236,0.506-0.475,1.011-0.938,2c1.933,0,3.389,0.009,4.846-0.003c1.221-0.009,2.438,1.365,3.66,0.003
		c0.363,0.405,0.729,0.811,1.09,1.211c-2.262,2.138-5.369-0.831-7.285,1.755c-0.029,0.04-0.875-0.344-1.139-0.685
		C148.832,585.705,146.898,583.089,144.588,580z"/>
</g>
</svg>
